<?xml version="1.0" encoding="utf-8"?>
<!-- Generator: Adobe Illustrator 19.2.0, SVG Export Plug-In . SVG Version: 6.00 Build 0)  -->
<svg version="1.1" id="Capa_1" xmlns="http://www.w3.org/2000/svg" xmlns:xlink="http://www.w3.org/1999/xlink" x="0px" y="0px"
	 viewBox="0 0 2800 1555" enable-background="new 0 0 2800 1555" xml:space="preserve">
<rect x="102.7" y="101.8" fill="#FFF9F8" width="2592.3" height="1308.1"/>
<path fill="#2D3130" d="M137.5,1402.2c-0.5-0.7-1-1.3-1.3-2c-0.8-1.7,0-3.4,1.8-3.7c0.6-0.1,1.3-0.1,1.9-0.1c1.6,0,3.2,0,4.8,0
	c211.5,0,423,0,634.5,0c1.8,0,3.5,0.1,5.3,0c1.6-0.1,3.4,0.4,4.9-0.5c-1.5-0.3-3.1-0.6-4.6-0.8c-23.7-3.9-44.4-14.1-61.6-30.9
	c-17.5-17-28.4-37.6-32.7-61.7c-8.7-48.8,15.1-97.2,58.3-120.4c18.3-9.8,37.9-14.1,58.7-13.3c45.4,1.6,87.5,31.4,102.8,76.6
	c22.6,66.6-18.3,134.1-82.9,148.4c-3.4,0.8-6.9,1.5-10.4,1.8c-0.6,0.1-1.3-0.1-1.6,0.6c0.6,0.1,1.3,0.3,1.9,0.3
	c1.6,0.1,3.2,0.1,4.8,0.1c90.9,0,181.8,0,272.6,0c1.9,0,3.8-0.1,5.8-0.2c0.3,0,0.6-0.1,0.9-0.2c-0.4-0.2-0.7-0.5-1.1-0.5
	c-3.8-0.3-7.6-1.1-11.3-2c-43.6-9.7-78.2-45.3-86.5-89.2c-1-5.5-1.8-11-2-16.7c-0.1-2.4-0.4-2.7-2.9-2.7c-8.6,0-17.3,0-25.9,0
	c-8.3-0.1-15.6-3-21.8-8.6c-5.2-4.8-8.5-10.8-9.8-17.7c-2.3-12.3-5.8-24.3-11.3-35.5c-19.4-39.5-50.4-65.4-93.1-75.9
	c-72.7-17.9-143.6,24.4-165.7,92.3c-1.9,5.9-3.4,12-4.6,18.1c-2.1,10.9-7.9,19.1-17.9,24.1c-4.8,2.4-9.9,3.3-15.3,3.3
	c-27.5-0.1-55,0-82.6,0c-10.9,0-21.8,0.1-32.6,0c-11.3-0.2-20.3-5.1-26.7-14.5c-3.2-4.7-5-10-5.3-15.7c-0.1-1.9-0.1-3.8-0.1-5.8
	c0-278.2,0-556.5,0-834.7c0-4.2,0-8.3,1.2-12.4c4.1-14.4,16.5-22.1,26.7-23.2c3-0.3,6.1-0.5,9.1-0.5c69.9,0,139.8,0,209.8,0
	c270.1,0,540.2,0,810.2,0c141.7,0,283.5,0,425.2,0c2.9,0,5.8,0,8.6,0.4c12.5,1.7,21.3,8.4,26.1,19.9c4,9.4,7.5,19,11.2,28.6
	c54,139.2,107.9,278.5,161.9,417.7c4.6,11.9,9.4,23.8,13.9,35.8c2.3,6.2,6,11.1,11,15.4c41.6,35,83.2,70.1,124.8,105.2
	c1.5,1.2,3,2.5,4.3,3.8c6.4,6.2,9.7,13.8,9.9,22.7c0,1.1,0,2.2,0,3.4c0,73.1,0,146.2,0,219.4c0,3.4-0.1,6.7-0.9,10
	c-3.4,14.3-16.3,24.5-30.5,24.7c-1.9,0-3.8,0.1-5.8,0.1c-40.3,0-80.6,0-121,0c-7.1,0-6.3-1.1-6.8,6.3c-3,43.9-33,85.1-79.3,99.8
	c-6.7,2.1-13.6,3.7-20.6,4.4c-0.3,0-0.8,0.2-0.8,0.3c0,0.6,0.6,0.4,0.9,0.4c2.6,0.1,5.1,0.2,7.7,0.2c49.8,0,99.5,0,149.3,0
	c120.5,0,241,0,361.4,0c1.6,0,3.2-0.1,4.8,0c2.4,0.1,3.2,1.5,2.4,3.9c-0.2,0.6-0.5,1.2-0.7,1.7
	C1778.5,1402.2,958,1402.2,137.5,1402.2z"/>
<path fill="#CED8DC" d="M1034.1,383.2c-170.2,0-340.4,0-510.7,0c-2.9,0-5.8,0.1-8.6,0.2c-13.1,0.8-24.7,12.2-25.1,26.3
	c-0.1,1.8,0,3.5,0,5.3c0,277.9,0,555.8,0,833.7c0,1.6,0,3.2,0,4.8c0.5,11.7,7.8,21.5,18.9,25.2c3.2,1.1,6.5,1.5,9.9,1.5
	c37.9,0,75.8,0,113.7,0c0.6,0,1.3,0,1.9,0c11.6-0.6,21.6-8.1,25.2-19c0.6-1.7,0.9-3.4,1.3-5.1c2.8-15.2,8-29.6,15.5-43.2
	c22.4-40.6,64.7-70.9,117.3-74.4c14.3-0.9,28.4,0.3,42.4,3.6c48.1,11.2,87.6,47.1,103.4,93.9c2.4,7.1,4.1,14.4,5.6,21.8
	c2.4,11.6,11,19.9,22.6,22c2.5,0.5,5.1,0.4,7.6,0.4c181.9,0,363.8,0,545.7,0c1.3,0,2.6,0,3.8,0c7.5-0.4,14-3.1,19.2-8.6
	c4.4-4.6,6.5-10.1,7.7-16.2c6.4-33.1,22.3-60.9,48-82.5c35.5-29.8,76.4-40.3,121.9-31.8c45.5,8.5,86.5,40.5,105.5,87
	c3.9,9.7,6.6,19.7,8.6,29.9c2.6,12.7,13.2,21.8,26.1,22.2c8,0.3,16,0.3,24,0c13.2-0.5,23.6-9.6,26.3-22.5c0.6-2.7,0.5-5.4,0.5-8.1
	c0-72.6,0-145.3,0-217.9c0-1.4,0-2.9,0-4.3c-0.4-7.3-3.2-13.6-8.5-18.8c-1-1-2.2-1.9-3.3-2.8c-41.9-35.4-83.9-70.8-125.9-106.1
	c-5.5-4.7-9.5-10.2-12.1-16.9C1704,730.7,1645.1,578.9,1586.2,427c-3.3-8.5-6.5-17-9.9-25.5c-4.6-11.3-13-17.5-25.3-18.2
	c-2.4-0.1-4.8-0.1-7.2-0.1C1373.9,383.2,1204,383.2,1034.1,383.2z"/>
<path fill="#E8EAEA" d="M2106.5,1280.4c23.5,0,47,0,70.6,0c41.9,0,83.8,0,125.8,0c1.6,0,3.2,0,4.8-0.1c12.7-0.7,23-9.6,25.8-22
	c0.6-2.9,0.6-5.7,0.6-8.6c0-72.8,0-145.6,0-218.4c0-1.3,0-2.6,0-3.8c-0.4-7.2-3-13.4-8-18.5c-1.2-1.3-2.6-2.4-4-3.5
	c-41.8-35.3-83.6-70.6-125.5-105.8c-5.7-4.8-9.7-10.4-12.4-17.3c-58.5-151-117-302-175.6-453c-3.7-9.5-7.3-19.1-11.1-28.6
	c-3.5-8.8-10-14.3-19.1-16.8c-3.4-0.9-7-0.9-10.5-0.9c-131.2,0-262.4,0-393.6,0c-1.3,0-2.6,0-3.8,0.1c-0.5,0-0.9,0.3-1,0.8
	c0,0.2,0.2,0.6,0.4,0.8c5.9,4.6,9.4,10.7,12,17.6c55.4,143.1,110.9,286.2,166.4,429.3c6.4,16.5,12.9,33.1,19.2,49.7
	c2.1,5.5,5.2,10.2,9.9,13.9c0.9,0.7,1.7,1.4,2.6,2.2c35.6,30,71.2,60,106.8,90c6.2,5.3,12.5,10.5,18.7,15.8
	c6.1,5.1,9.9,11.6,11.4,19.5c0.6,2.9,0.5,5.7,0.5,8.6c0,71.2,0,142.4,0,213.6c0,2.7,0,5.4,0,8.2c0,2.1-0.2,4.1-0.6,6.2
	c-1.5,7.1-5,13.1-10.5,17.9c-0.7,0.6-1.5,1.2-2.2,1.9c-0.2,0.2-0.3,0.6-0.2,0.8c0.1,0.2,0.4,0.5,0.7,0.5c1.4,0.1,2.9,0.1,4.3,0.1
	c16.5,0,33,0,49.4,0C2007.6,1280.4,2057,1280.4,2106.5,1280.4z"/>
<path fill="#FFFFFF" d="M1403.8,1396.5c81.6,0,163.2,0,244.8,0c9,0,17.9,0,26.9,0c1.6,0,3.2-0.2,4.8-0.3c-1.3-1.2-2.9-0.6-4.3-0.9
	c-2.5-0.6-5-1-7.5-1.5c-57.9-12.7-99.6-70.2-86.6-134.2c12.2-60,70.9-102.2,135.9-88.3c57.4,12.3,98.3,67.4,87.9,130.4
	c-5,30.1-20.2,54.3-44.6,72.5c-15.9,11.9-33.9,19-53.7,21.4c-0.4,0-0.9,0-1,0.5c0,0,0.6,0.2,0.9,0.2c1.9,0.1,3.8,0.2,5.8,0.2
	c109.3,0,218.6,0,327.8,0c1.8,0,3.5,0,5.3-0.1c0.3,0,0.9,0.2,0.9-0.5c0-0.1-0.5-0.3-0.8-0.3c-1.9-0.3-3.8-0.6-5.7-0.9
	c-35.4-5.9-68.2-29.9-84.3-65.8c-5.4-12.1-8.5-24.8-9.5-38c-0.1-1.7,0.4-3.9-0.8-5.1c-1.4-1.5-3.7-0.7-5.5-0.7
	c-25.9-0.1-51.8-0.1-77.8-0.2c-15.5-0.1-28.4-10.6-31.7-25.7c-0.6-2.7-1.1-5.3-1.7-8c-16.5-72.2-87.8-120.1-162.6-105.6
	c-52.5,10.2-95.5,50.5-108.6,102.8c-1,4-1.6,8.2-2.7,12.2c-3.7,12.8-12,20.8-25.1,23.7c-2.8,0.6-5.7,0.6-8.6,0.6
	c-95.4,0-190.7,0-286.1,0c-1.6,0-3.2,0-4.8,0c-0.5,0-1,0.1-1.4,0.1c-0.7,0.1-1.1,0.6-1.2,1.3c-0.1,1-0.2,1.9-0.2,2.9
	c-0.3,5.6-1,11.2-2.2,16.6c-9.7,45.9-46.5,82-94.8,89.4c-1.2,0.2-2.5,0.4-3.7,0.6c1.2,0.9,2.6,0.5,3.9,0.6c2.1,0.1,4.2,0,6.2,0
	C1226.2,1396.5,1315,1396.5,1403.8,1396.5z"/>
<path fill="#524E43" d="M911.5,1282.5c0.4-59.1-48.3-108.9-108.9-109c-57.9-0.1-109,46.5-109.1,108.9
	c-0.1,61.5,49.8,109.4,109.3,109.2C864.8,1391.5,912.1,1340.5,911.5,1282.5z"/>
<path fill="#524E43" d="M1693.1,1173.6c-58.2-0.2-108.9,47-108.9,109.1c0,60.9,49.6,109.3,109.5,109
	c61.1-0.3,108.8-50.3,108.6-109.4C1802.2,1222.1,1752.9,1173.2,1693.1,1173.6z"/>
<path fill="#3F3B2F" d="M1114.3,1285c-34.1,0-68.1,0-102.2,0c-1.3,0-2.6,0-3.8,0c-3,0.1-3.2,0.3-3,3.4c0.2,3.7,0.5,7.3,1.1,11
	c4.3,26.2,16.3,48.4,36.5,65.6c26.1,22.2,56.3,30.6,90.2,24.9c22.1-3.7,41.1-13.6,57.1-29.3c19.5-19.1,30.3-42.4,32.7-69.6
	c0.6-6.5,0.9-6-5.5-6C1183.1,1285,1148.7,1285,1114.3,1285z"/>
<path fill="#3F3B2F" d="M2059.9,1285.2c-33.9,0-67.8,0-101.7,0c-1.4,0-2.9,0-4.3,0c-2.1,0.1-2.6,0.6-2.5,2.5
	c0.3,5.3,0.8,10.5,1.8,15.7c4.6,22.6,14.9,42.1,31.8,57.9c25.7,24.1,56.3,33.9,91.2,29.1c24.4-3.3,45.3-14.3,62.4-32
	c18.2-18.9,28.4-41.5,30.4-67.6c0.5-6.2,0.4-5.6-5.5-5.6C2128.9,1285.1,2094.4,1285.2,2059.9,1285.2z"/>
<path fill="#2D3130" d="M525.3,202.2c1.2,1.2,1.7,2.6,1.7,4.3c-0.1,11.5,0,23,0,34.6c0,0.6,0,1.3-0.1,1.9c-0.3,1.5-1.1,2.2-2.6,2.3
	c-1.3,0.1-2.6,0-3.8,0c-12.2,0-24.3,0-36.5,0c-1.3,0-2.6,0-3.8,0.1c-0.9,0.1-1.5,0.6-1.5,1.5c-0.1,1.3-0.1,2.6-0.1,3.8
	c0,9.1,0,18.2,0,27.4c0,5.3-0.2,5.5-5.3,5.5c-30.2,0-60.5,0-90.7,0c-0.6,0-1.3,0-1.9,0c-2.4-0.2-3.2-0.9-3.4-3.1
	c-0.1-1-0.1-1.9-0.1-2.9c0-10.4,0-20.8,0-31.2c0-5.8,0.1-5.9,5.9-5.9c12.3,0,24.6,0,36.9,0c1.3,0,2.6,0,3.8-0.1
	c0.9-0.1,1.5-0.6,1.5-1.5c0.1-1.3,0.1-2.6,0.1-3.8c0-9.1,0-18.2,0-27.4c0-1.9-0.1-3.8,1-5.6C459.4,202.2,492.4,202.2,525.3,202.2z"
	/>
<path fill="#FFC5B6" d="M476.2,207.2c-13.4,0-26.9,0-40.3,0c-1.3,0-2.6,0-3.8,0.1c-1.1,0.1-1.7,0.8-1.7,1.9
	c-0.1,1.3-0.1,2.6-0.1,3.8c0,7.2,0,14.4,0,21.6c0,6.5-0.6,6,5.8,6c26.7,0,53.4,0,80.1,0c1.1,0,2.2,0,3.4,0c1.9-0.1,2.5-0.5,2.5-2.2
	c0-9.7,0-19.5,0-29.2c0-1.4-0.6-1.9-2.2-1.9c-1.3-0.1-2.6,0-3.8,0C502.7,207.2,489.5,207.2,476.2,207.2z"/>
<path fill="#FF6F4C" d="M428.2,278.9c12.9,0,25.9,0,38.8,0c1.3,0,2.6,0,3.8,0c2.4-0.1,2.8-0.4,2.8-2.8c0-9.3,0-18.5,0-27.8
	c0-2.6-0.2-2.7-2.7-2.8c-0.6,0-1.3,0-1.9,0c-27.5,0-55,0-82.5,0c-1,0-1.9,0-2.9,0.1c-0.9,0-1.5,0.6-1.5,1.5
	c-0.1,1.1-0.1,2.2-0.1,3.4c0,7.8,0,15.7,0,23.5c0,5.3,0,5.1,4.9,5.1C400.7,278.9,414.4,278.9,428.2,278.9z"/>
<path fill="#2D3130" d="M112.3,923.2c2-1.5,4.2-2,6.7-1.9c4.6,0.1,9.2,0,13.8,0.1c0.9,0,1.9,0,2.8,0.3c0.9,0.3,1.5,1.2,1.5,2.2
	c-0.1,1-0.6,1.8-1.6,2.1c-0.9,0.2-1.9,0.2-2.8,0.2c-3.8,0-7.6,0-11.4,0c-3,0-6,0.2-8.8-1C112.3,924.5,112.3,923.8,112.3,923.2z"/>
<path fill="#2D3130" d="M368.9,202.2c0.2,0.7,0.6,1.5,0.7,2.2c0.2,1.2-0.6,2.3-1.7,2.5c-0.5,0.1-0.9,0.2-1.4,0.2
	c-5.8,0-11.5,0-17.3,0c-0.5,0-1-0.1-1.4-0.2c-1.1-0.2-1.9-1.3-1.7-2.5c0.1-0.8,0.5-1.5,0.7-2.2C354.1,202.2,361.5,202.2,368.9,202.2
	z"/>
<path fill="#2D3130" d="M2625.6,568.7c-0.8,0.6-1.7,0.9-2.7,0.9c-5.6,0-11.2,0-16.8,0c-0.6,0-1.3-0.1-1.9-0.3
	c-0.9-0.4-1.5-1.2-1.4-2.3c0.1-1,0.7-1.8,1.7-2c0.8-0.2,1.6-0.2,2.4-0.2c6.2,0,12.5,0.1,18.7,0.1
	C2625.6,566.2,2625.6,567.4,2625.6,568.7z"/>
<path fill="#2D3130" d="M304.8,1079c-14.9,0-29.7,0-44.6,0c-6,0-6,0-6-6.2c0-8.8,0-17.6,0-26.4c0-1.3,0-2.6-0.1-3.8
	c-0.1-0.9-0.7-1.4-1.6-1.5c-1.4-0.1-2.9-0.1-4.3-0.1c-12,0-24,0-36,0c-1.3,0-2.6,0-3.8-0.1c-1.5-0.2-2.3-1-2.5-2.5
	c-0.1-1.3-0.1-2.6-0.1-3.8c0-8.8,0-17.6,0-26.4c0-1.3,0-2.6-0.1-3.8c-0.1-0.9-0.6-1.4-1.5-1.5c-1.4-0.1-2.9-0.1-4.3-0.1
	c-12.2,0-24.3,0-36.5,0c-1.3,0-2.6,0-3.8-0.2c-1-0.2-1.7-0.9-1.9-1.9c-0.1-0.9-0.2-1.9-0.2-2.9c0-11,0-22.1,0-33.1
	c0-4.6,0.4-4.9,4.9-4.9c12.8,0,25.6,0,38.4,0c5,0,5,0.3,5-5c0-9.1,0-18.2,0-27.3c0-5.8,0.2-6,5.9-6c29.9,0,59.8,0,89.7,0
	c1.1,0,2.2,0,3.4,0.1c1.5,0.2,2.3,0.9,2.4,2.5c0.1,1.3,0.1,2.6,0.1,3.8c0,8.6,0,17.3,0,25.9c0,1.3,0,2.6,0.1,3.8
	c0.1,1.5,0.6,2,2,2.1c1.3,0.1,2.6,0.1,3.8,0.1c12.3,0,24.6,0,36.9,0c5.4,0,5.6,0.2,5.6,5.7c0,10.6,0,21.1,0,31.7
	c0,5.3-0.4,5.6-5.8,5.6c-12.6,0-25.3,0-37.9,0c-4.7,0-4.8,0-4.8,4.7c0,8,0,16,0,24c0,0.8,0,1.6,0,2.4c0.1,1.6,0.5,2.1,2,2.2
	c1.4,0.1,2.9,0.1,4.3,0.1c11.8,0,23.7,0,35.5,0c6.5,0,6.7,0.1,6.7,6.7c0,9.9,0,19.8,0,29.7c0,6.5,0,6.5-6.8,6.5
	C334.3,1079,319.6,1079,304.8,1079z"/>
<path fill="#FF6F4C" d="M208,964.5c-13.4,0-26.9,0-40.3,0c-1.3,0-2.6,0-3.8,0.1c-0.9,0.1-1.4,0.6-1.5,1.5c0,0.5-0.1,1-0.1,1.4
	c0,9.1,0,18.2,0,27.3c0,0.3,0,0.6,0,1c0.1,1.1,0.6,1.8,1.7,1.9c1.3,0.1,2.6,0.1,3.8,0.1c26.9,0,53.7,0,80.6,0c1.3,0,2.6,0,3.8-0.1
	c1.1-0.1,1.7-0.7,1.8-1.9c0.1-1,0.1-1.9,0.1-2.9c0-8,0-16,0-24c0-4.5,0-4.5-4.4-4.5C235.8,964.4,221.9,964.5,208,964.5z"/>
<path fill="#FFC5B6" d="M305.1,964.5c-9.6,0-19.2,0-28.8,0c-4.8,0-9.6,0-14.4,0c-2.8,0-2.9,0.2-2.9,3.1c0,9.1,0,18.2,0,27.3
	c0,2.5,0.4,2.8,2.7,2.9c1,0,1.9,0,2.9,0c26.8,0,53.7,0,80.5,0c1.1,0,2.2,0,3.4-0.1c1.6-0.1,2.1-0.6,2.2-2.4c0-0.6,0-1.3,0-1.9
	c0-8.3,0-16.6,0-24.9c0-0.8,0-1.6-0.1-2.4c-0.1-0.9-0.5-1.5-1.5-1.6c-1.3-0.1-2.6-0.1-3.8-0.1C331.9,964.5,318.5,964.5,305.1,964.5z
	"/>
<path fill="#FFC5B6" d="M256.8,926.1c-13.4,0-26.9,0-40.3,0c-1.3,0-2.6,0-3.8,0.1c-1.2,0-1.7,0.7-1.8,1.8c0,0.3-0.1,0.6-0.1,1
	c0,9.3,0,18.5,0,27.8c0,2.4,0.4,2.8,2.8,2.9c0.6,0,1.3,0,1.9,0c27.5,0,55,0,82.5,0c1,0,1.9,0,2.9-0.1c0.9-0.1,1.4-0.7,1.5-1.5
	c0.1-1,0.1-1.9,0.1-2.9c0-8.2,0-16.3,0-24.5c0-4.5,0-4.5-4.4-4.5C284.3,926.1,270.5,926.1,256.8,926.1z"/>
<path fill="#EDC062" d="M256.7,1002.7c-13.3,0-26.5,0-39.8,0c-1.3,0-2.6,0-3.8,0c-1.6,0.1-2,0.5-2.2,1.9c-0.1,0.6-0.1,1.3-0.1,1.9
	c0,8.5,0,17,0,25.4c0,0.8,0,1.6,0.1,2.4c0.1,0.9,0.7,1.4,1.6,1.5c1,0.1,1.9,0.1,2.9,0.1c27.5,0,55,0,82.5,0c1,0,1.9,0,2.9-0.1
	c1.2-0.1,1.7-0.8,1.7-1.9c0-0.6,0-1.3,0-1.9c0-8.5,0-17,0-25.4c0-0.8,0-1.6-0.1-2.4c-0.1-0.9-0.7-1.4-1.6-1.5
	c-1.4-0.1-2.9-0.1-4.3-0.1C283.2,1002.7,269.9,1002.7,256.7,1002.7z"/>
<path fill="#FF6F4C" d="M304.3,1074.1c13.6,0,27.2,0,40.8,0c1.4,0,2.9,0,4.3-0.1c0.7-0.1,1.1-0.5,1.2-1.3c0.1-1.1,0.1-2.2,0.1-3.3
	c0-7.8,0-15.7,0-23.5c0-1,0-1.9-0.1-2.9c-0.1-1.5-0.6-1.9-2.1-2c-0.8-0.1-1.6,0-2.4,0c-27.5,0-55,0-82.5,0c-1.1,0-2.2,0.1-3.3,0.2
	c-0.7,0.1-1.1,0.6-1.2,1.3c-0.1,1.3-0.1,2.6-0.1,3.8c0,6.6,0,13.1,0,19.7c0,1.8,0,3.5,0,5.3c0.1,2.7,0.2,2.8,3.1,2.9
	c1.1,0,2.2,0,3.4,0C278.4,1074.1,291.4,1074.1,304.3,1074.1z"/>
<path fill="#2D3130" d="M2289.6,387.6c30.7,0,61.4,0,92.1,0c1.4,0,2.9,0,4.3,0.1c1.4,0.1,2.3,1,2.6,2.4c0.1,0.9,0.2,1.9,0.2,2.9
	c0,10.7,0,21.4,0,32.1c0,5.2-0.3,5.5-5.4,5.5c-12.2,0-24.3,0-36.5,0c-1,0-1.9,0-2.9,0c-3.6,0.1-3.7,0.1-3.8,3.8c0,9.6,0,19.2,0,28.8
	c0,5.6-0.1,5.7-5.6,5.7c-30.1,0-60.1,0-90.2,0c-5.5,0-5.7-0.2-5.7-5.6c0-9.1,0-18.2,0-27.3c0-5.6,0.1-5.3-5.2-5.3
	c-12.3,0-24.6,0-36.9,0c-6.2,0-6.2,0-6.2-6c0-10.2,0-20.5,0-30.7c0-1,0-1.9,0-2.9c0.1-2.4,0.9-3.2,3.2-3.4c1.4-0.1,2.9-0.1,4.3-0.1
	C2228.5,387.6,2259,387.6,2289.6,387.6z"/>
<path fill="#FFC5B6" d="M2289.6,464.1c13.4,0,26.8,0,40.3,0c1.3,0,2.6,0,3.8-0.1c0.9,0,1.5-0.5,1.6-1.4c0.1-1,0.1-1.9,0.1-2.9
	c0-7.8,0-15.7,0-23.5c0-6,0.4-5.6-5.8-5.6c-26.7,0-53.4,0-80.1,0c-1.1,0-2.2,0-3.4,0c-1.8,0.1-2.3,0.6-2.4,2.3
	c-0.1,3.4-0.1,6.7-0.1,10.1c0,6.1,0,12.1,0,18.2c0,2.5,0.4,2.8,2.7,2.9c1,0,1.9,0,2.9,0C2262.8,464.1,2276.2,464.1,2289.6,464.1z"/>
<path fill="#EDC062" d="M2240.8,425.8c13.3,0,26.6,0,39.8,0c1.1,0,2.2,0,3.4,0c2.9-0.1,3.1-0.2,3.2-2.9c0-9,0-17.9,0-26.9
	c0-3-0.4-3.3-3.3-3.4c-0.6,0-1.3,0-1.9,0c-27.2,0-54.4,0-81.6,0c-1,0-1.9,0-2.9,0.1c-1.5,0.1-2,0.6-2.1,2c-0.1,0.8-0.1,1.6-0.1,2.4
	c0,8.2,0,16.3,0,24.5c0,4.2,0,4.2,4.2,4.2C2213.2,425.8,2227,425.8,2240.8,425.8z"/>
<path fill="#FF6F4C" d="M2337.9,425.8c7.5,0,15,0,22.6,0c6.9,0,13.8,0,20.6,0c2.2,0,2.6-0.3,2.6-2.5c0-9.1,0.1-18.2,0-27.4
	c0-3.1-0.2-3.2-3.2-3.4c-0.6,0-1.3,0-1.9,0c-27.2,0-54.4,0-81.6,0c-1.1,0-2.2,0-3.4,0.1c-0.9,0.1-1.5,0.6-1.5,1.5
	c-0.1,1-0.1,1.9-0.1,2.9c0,8.2,0,16.3,0,24.5c0,4.3-0.1,4.2,4.2,4.2C2310.1,425.8,2324,425.8,2337.9,425.8z"/>
<path fill="#2D3130" d="M2503.5,564.7c14.6,0,29.1,0,43.7,0c1.3,0,2.6,0,3.8,0.1c2,0.1,2.9,0.9,2.9,3c0.1,12.3,0,24.6,0,37
	c0,2-1,2.8-3,3c-1.3,0.1-2.6,0.1-3.8,0.1c-12.3,0-24.6,0-37,0c-4.3,0-4.5-0.1-4.5,4.6c0,9.1,0,18.2,0,27.4c0,6.1-0.1,6.2-6.1,6.2
	c-29.8,0-59.5,0-89.3,0c-5.9,0-5.9,0-5.9-5.8c0-10.7,0-21.4,0-32.2c0-4.7,0.2-4.9,4.8-5c12.5,0,25,0,37.4,0c6.6,0,5.9,0.3,5.9-6
	c0-8.3,0-16.6,0-25c0-1,0-1.9,0-2.9c0.1-3.9,0.5-4.4,4.5-4.4C2472.4,564.7,2488,564.8,2503.5,564.7
	C2503.5,564.8,2503.5,564.8,2503.5,564.7z"/>
<path fill="#FFC5B6" d="M2503.3,603c13.3,0,26.5,0,39.8,0c1.3,0,2.6,0,3.8-0.1c1.4-0.1,1.9-0.6,2-2.1c0-0.5,0.1-1,0.1-1.4
	c0-8.8,0-17.6,0-26.4c0-0.5,0-1-0.1-1.4c-0.1-1.4-0.6-1.8-2.2-1.9c-0.6,0-1.3,0-1.9,0c-27.8,0-55.6,0-83.4,0c-1,0-1.9,0.1-2.9,0.2
	c-0.7,0.1-1.1,0.6-1.2,1.3c-0.1,1-0.1,1.9-0.1,2.9c0,8,0,16,0,24c0,5.2-0.3,5.2,5.3,5.2C2476.1,603,2489.7,603,2503.3,603z"/>
<path fill="#EDC062" d="M2454.7,641c13.4,0,26.8,0,40.3,0c1.4,0,2.9-0.1,4.3-0.1c0.7,0,1.2-0.5,1.3-1.2c0.1-1.1,0.2-2.2,0.2-3.3
	c0-7.8,0-15.7,0-23.5c0-5.2,0.2-5-4.9-5c-27.3,0-54.6,0-81.9,0c-1.1,0-2.2,0.1-3.3,0.1c-0.7,0.1-1.2,0.5-1.3,1.2
	c-0.1,0.5-0.1,1-0.1,1.4c0,9.1,0,18.2,0,27.3c0,0.5,0,1,0.1,1.4c0.1,0.9,0.6,1.5,1.5,1.5c1.4,0.1,2.9,0.1,4.3,0.1
	C2428.2,641,2441.5,641,2454.7,641z"/>
<path fill="#2D3130" d="M2166.3,283c2.6,0,5.1,0,7.7,0c0.8,0,1.6,0.1,2.3,0.4c0.9,0.4,1.5,1.1,1.4,2.3c-0.1,0.9-0.5,1.6-1.3,1.8
	c-0.9,0.3-1.9,0.5-2.8,0.5c-5.1,0-10.2,0-15.4,0c-0.9,0-1.9-0.2-2.8-0.5c-0.8-0.3-1.2-1-1.2-1.9c0-0.9,0.4-1.5,1.1-2
	c0.8-0.6,1.8-0.5,2.8-0.5C2160.8,283,2163.6,283,2166.3,283z"/>
<path fill="#2D3130" d="M2157.6,468.8c-3.3,0-6.7,0-10,0c-1.1,0-2.1-1.3-2.1-2.3c0-1,1-2.2,2-2.3c0.9-0.1,1.9-0.1,2.8-0.1
	c4.8,0,9.5,0,14.3,0c0.9,0,1.9,0,2.8,0.3c1,0.3,1.6,1.1,1.6,2.1c0,1-0.5,1.9-1.5,2.1c-0.7,0.2-1.6,0.2-2.3,0.2
	C2162.7,468.9,2160.1,468.9,2157.6,468.8C2157.6,468.9,2157.6,468.9,2157.6,468.8z"/>
<path fill="#2D3130" d="M403.6,1079c-3,0-6.1,0.1-9.1,0c-1.9-0.1-2.7-0.8-2.7-2c-0.1-1.5,0.9-2.6,2.7-2.7c2.2-0.1,4.5-0.1,6.7-0.1
	c3.2,0,6.4,0,9.6,0c0.9,0,1.9,0.1,2.8,0.4c1.1,0.3,1.8,1.6,1.6,2.6c-0.2,1-0.9,1.7-2,1.7c-1.4,0.1-2.9,0.1-4.3,0.1
	C407.1,1079,405.3,1079,403.6,1079C403.6,1079,403.6,1079,403.6,1079z"/>
<path fill="#2D3130" d="M301.5,607.4c-2.4,0-4.8,0-7.2,0c-0.8,0-1.6,0-2.4-0.1c-1.2-0.1-2.1-1.1-2.1-2.2c-0.1-1.1,0.8-2.4,1.9-2.4
	c6.5-0.1,13.1-0.1,19.6,0c1.2,0,1.9,1.2,1.9,2.4c0,1.2-0.9,2.1-2.1,2.2C307.9,607.4,304.7,607.3,301.5,607.4
	C301.5,607.4,301.5,607.4,301.5,607.4z"/>
<path fill="#2D3130" d="M2486.6,1103.5c-2.7,0-5.4,0-8.1,0c-0.8,0-1.6-0.1-2.3-0.4c-0.9-0.4-1.4-1.3-1.3-2.3
	c0.1-0.9,0.6-1.5,1.4-1.8c0.8-0.2,1.6-0.3,2.3-0.3c5.3,0,10.5,0,15.8,0c0.6,0,1.3,0,1.9,0.2c1.2,0.2,2.1,1.3,2,2.3
	c-0.1,1-1,2.2-2.1,2.3c-1.3,0.1-2.5,0.1-3.8,0.1C2490.5,1103.5,2488.6,1103.5,2486.6,1103.5
	C2486.6,1103.5,2486.6,1103.5,2486.6,1103.5z"/>
<path fill="#2D3130" d="M2540.9,1041c-2.6,0-5.1,0-7.7,0c-1,0-1.9,0-2.7-0.6c-0.7-0.5-1-1.2-1-2.1c0-0.9,0.5-1.6,1.3-1.8
	c0.9-0.2,1.9-0.4,2.8-0.4c5.1,0,10.2,0,15.3,0c0.8,0,1.6,0.1,2.4,0.3c1,0.3,1.6,1,1.6,2.1c0,1-0.6,1.8-1.6,2.2
	c-0.7,0.2-1.6,0.3-2.3,0.3C2546.3,1041,2543.6,1041,2540.9,1041C2540.9,1041,2540.9,1041,2540.9,1041z"/>
<path fill="#2D3130" d="M516.1,283.7c-2.7,0-5.4,0-8.1,0c-0.8,0-1.6-0.1-2.3-0.3c-1-0.4-1.4-1.2-1.4-2.3c0.1-1.1,0.6-1.8,1.7-2
	c0.8-0.1,1.6-0.2,2.4-0.2c5.1,0,10.2,0,15.3,0c0.6,0,1.3,0,1.9,0.1c1.2,0.2,2.1,1.1,2.1,2.2c0,1.1-0.9,2.2-2,2.4
	c-0.8,0.1-1.6,0.1-2.4,0.1C520.9,283.7,518.5,283.7,516.1,283.7C516.1,283.7,516.1,283.7,516.1,283.7z"/>
<path fill="#2D3130" d="M1629.3,251.3c-2.9,0-5.7,0.1-8.6,0c-2-0.1-3-1-2.9-2.4c0.1-1.5,1.1-2.3,3-2.4c4-0.1,8,0,12,0
	c1.8,0,3.5,0,5.3,0c0.6,0,1.3,0.1,1.8,0.4c0.9,0.5,1.4,1.3,1.2,2.4c-0.2,1-0.7,1.8-1.8,1.9c-0.8,0.1-1.6,0.1-2.4,0.1
	C1634.4,251.3,1631.9,251.3,1629.3,251.3C1629.3,251.3,1629.3,251.3,1629.3,251.3z"/>
<path fill="#2D3130" d="M206.2,1207.3c-3,0-6,0-9.1,0c-0.8,0-1.5-0.4-1.9-1.2c-0.7-1.3,0-3.1,1.5-3.4c0.6-0.1,1.3-0.2,1.9-0.2
	c5.4,0,10.8,0,16.2,0c0.5,0,1,0,1.4,0.1c1.2,0.2,2,1.1,2,2.3c0,1.1-0.8,2.2-2,2.3c-1.1,0.1-2.2,0.1-3.3,0.1
	C210.7,1207.4,208.5,1207.4,206.2,1207.3C206.2,1207.4,206.2,1207.4,206.2,1207.3z"/>
<path fill="#2D3130" d="M963.7,876.3c-121.6,0-243.2,0-364.7,0c-2.2,0-4.5,0-6.7-0.1c-12-0.1-24.4-9.9-25.6-24.6
	c-1.1-15.2,10.1-26.5,21.9-28.4c2.7-0.4,5.4-0.6,8.1-0.6c12,0,24,0,36,0c1.3,0,2.6,0,3.8,0c1.9-0.1,2.1-0.5,1.3-2.4
	c-0.4-0.9-0.8-1.8-1.2-2.6c-30.5-64.8-61-129.6-91.5-194.4c-0.2-0.4-0.5-0.9-0.6-1.3c-0.7-2-2-2.9-4.1-3.3
	c-6.8-1.2-12.6-4.5-17.3-9.6c-5.7-6.1-8.6-13.4-8.7-21.8c-0.1-6.1,0-12.1,0-18.2c0-1.1,0.1-2.2,0-3.4c-0.1-2.3,0.4-3.9,2.9-4.8
	c1.7-0.6,3.2-2.1,4.8-3.2c23.7-17.7,47.4-35.4,71.1-53.2c13.7-10.3,27.3-20.6,41-30.9c5.2-3.9,3.2-3.2,9.6-3.2c76,0,152,0,228,0
	c158.7,0,317.4,0,476.1,0c1.3,0,2.6,0,3.8,0c3.2,0.1,3.8,0.7,3.9,4.1c0,1.3,0,2.6,0,3.8c0,63.5,0,127,0,190.5
	c0,52.6,0,105.3,0,157.9c0,1.3,0,2.6,0,3.8c-0.1,1.7,0.4,3.1,1.4,4.5c2,2.9,3.3,6.2,4,9.7c3.1,15.8-8.6,30.9-24.7,31.7
	c-2.2,0.1-4.5,0.1-6.7,0.1C1207.5,876.3,1085.6,876.3,963.7,876.3z"/>
<path fill="#AEDEF8" d="M875.7,822.6c20.6,0,41.3,0,61.9,0c54.2,0,108.5,0,162.7,0c1.6,0,3.2,0,4.8-0.1c0.7,0,1.2-0.5,1.2-1.2
	c0.1-1.6,0.1-3.2,0.1-4.8c-0.1-29.8-0.1-59.5-0.2-89.3c0-1.4,0-2.9,0.1-4.3c0-0.7,0.5-1.1,1.2-1.2c0.5-0.1,1,0,1.4-0.1
	c2.5-0.3,2.6-0.4,2.6-2.9c0.1-2.4,0-4.8,0.1-7.2c0-0.9,0.6-1.5,1.5-1.5c2.4-0.1,4.8,0,7.2-0.1c1.8-0.1,2.2-0.4,2.3-2.3
	c0.3-4.3,0.5-8.6,0.7-12.9c0.1-2.9,0.2-5.8,0.3-8.6c0.1-2.2,0.5-2.5,2.6-2.6c2.1-0.1,4.2,0,6.2-0.1c5.3-0.1,5-0.3,5.2,4.8
	c0.3,6.1,0.6,12.1,0.9,18.2c0.2,3.3,0.2,3.3,3.7,3.4c1.6,0,3.2,0,4.8,0c2.5,0.1,2.8,0.4,2.9,2.7c0.1,2.2,0,4.5,0.1,6.7
	c0.1,1.8,0.3,2,2.3,2.3c2.8,0.4,2.9,0.4,2.9,3.1c0.1,6.2,0.2,12.5,0.2,18.7c0.1,20.3,0.1,40.6,0.2,60.9c0,4.6,0.1,9.3,0.1,13.9
	c0,1,0,1.9,0.1,2.9c0.1,0.9,0.6,1.4,1.5,1.5c0.8,0.1,1.6,0.1,2.4,0.1c8.3,0,16.6,0,25,0c0.8,0,1.6,0,2.4-0.1c0.2,0,0.6-0.3,0.6-0.5
	c0.1-0.2-0.1-0.6-0.3-0.8c-0.9-0.9-1.9-1.8-2.8-2.7c-19.8-19.6-17-52.5,3.5-67.8c1.8-1.3,2.3-2.8,2.3-4.8c-0.1-3.2-0.1-6.4,0-9.6
	c0.1-2.1,0.9-2.9,2.9-3c1.4-0.1,2.9-0.1,4.3-0.1c1.2,0,1.7-0.6,1.8-1.8c0.1-2.2,0.1-4.5,0.2-6.7c0.1-1.3,0.9-2,2.2-2.1
	c1.6-0.1,3.2-0.1,4.8-0.1c1.1,0,1.7-0.7,1.8-1.8c0.1-0.6,0.1-1.3,0.1-1.9c0.4-7.5,0.7-15,1.1-22.5c0.1-1.3,0.1-2.6,0.3-3.8
	c0.3-1.4,1.2-2.2,2.7-2.3c2.4-0.1,4.8-0.1,7.2,0c1.7,0.1,2.6,1,2.9,2.7c0.2,1.3,0.2,2.6,0.2,3.8c0.4,7.7,0.7,15.3,1.1,23
	c0.1,2.6,0.4,2.8,2.8,2.9c0.8,0,1.6,0,2.4,0c3.2,0.1,3.7,0.6,3.9,4.1c0.1,1.6,0,3.2,0.1,4.8c0,1.1,0.5,1.8,1.7,1.8
	c1.8,0,3.5,0,5.3,0.1c2.5,0.2,3.2,0.8,3.3,3.2c0.1,3.2,0.2,6.4,0,9.6c-0.1,2.1,0.5,3.7,2.3,4.9c0.7,0.4,1.2,1,1.8,1.6
	c11.7,11.5,16.2,25.5,13.6,41.6c-1.5,9.6-6.3,17.7-13.3,24.5c-0.9,0.9-1.9,1.7-2.8,2.6c-0.2,0.2-0.3,0.6-0.2,0.8
	c0.1,0.2,0.4,0.5,0.7,0.5c1.6,0.1,3.2,0.1,4.8,0.1c26.4,0,52.8,0,79.2,0c1.4,0,2.9,0,4.3,0c4.7,0.2,9.2,1.1,13.3,3.4
	c0.6,0.3,1.1,0.7,1.7,0.9c0.5,0.2,1,0.1,1.2-0.4c0.2-0.5,0-1.1-0.5-1.2c-2.2-0.3-3.3-1.7-4-3.7c-0.2-0.6-0.5-1.2-0.8-1.8
	c-7.9-18.2-15.8-36.4-23.7-54.5c-26.7-61.6-53.4-123.2-80.2-184.8c-0.6-1.5-1.3-2.9-2-4.3c-0.1-0.2-0.6-0.3-0.8-0.3
	c-0.2,0.1-0.5,0.4-0.5,0.6c-0.1,3.4-0.2,6.7-0.1,10.1c0.2,7.1-2.4,13.1-6.8,18.5c-5.2,6.2-11.8,10.3-19.5,12.6
	c-16,4.8-31.9-1.8-40.1-16.4c-0.4-0.7-0.8-1.4-1.2-2.1c-0.3-0.5-1.2-0.5-1.5,0.2c-0.6,1.1-1.1,2.3-1.7,3.4
	c-11.9,21.2-41.3,22.1-54.5,1.7c-0.6-0.9-1.1-1.9-1.7-2.9c-0.5-0.9-1.3-0.9-1.8,0c-1.9,3.5-4.2,6.8-7.2,9.5
	c-12.3,11.3-32.3,12.3-44.5-3.3c-1.4-1.8-2.5-3.7-3.7-5.6c-0.5-0.8-0.9-1.7-1.3-2.6c-0.3-0.6-1.2-0.5-1.5,0.1
	c-0.6,1.3-1.1,2.7-1.7,3.9c-3.6,7.2-9.2,12.2-17.1,14.3c-16.1,4.3-30.4-2.9-37.3-15.5c-0.7-1.2-0.9-3.5-2.2-3.5
	c-1.6,0-1.7,2.3-2.5,3.6c-12,21.4-41.7,22.2-54.8,1.4c-0.6-0.9-1.1-1.9-1.7-2.9c-0.5-0.7-1-0.7-1.5,0c-0.9,1.3-1.6,2.8-2.5,4.1
	c-13.5,19.5-41.6,18.1-53.5-1.8c-0.8-1.3-1.1-3-2.5-4c-1.8,0.8-1.9,2.7-2.8,4.1c-12.7,20.8-41.8,20.5-54.3,0.4
	c-0.7-1.1-1.2-2.3-1.8-3.4c-0.4-0.6-0.3-1.7-1.5-1.6c-0.7,0.1-0.9,0.8-1.2,1.4c-0.4,0.9-0.9,1.7-1.3,2.5
	c-12.1,21.1-41.4,21.7-54.5,1.2c-0.6-0.9-1.1-1.9-1.7-2.9c-0.4-0.6-1.2-0.6-1.6,0c-0.7,1.1-1.3,2.2-2,3.3
	c-12.7,19.6-41,19.4-53.5-0.3c-0.7-1.1-1.3-2.2-2-3.3c-0.4-0.7-1-0.7-1.4,0c-0.7,1.1-1.3,2.2-2,3.3c-9.3,14.7-27.9,19.2-42.9,10.5
	c-4.1-2.4-4.1-2.4-4.1,2.2c0,0.6,0,1.3,0,1.9c0,65.6,0,131.2,0,196.8c0,7.9-1,6.9,6.9,6.9C726.6,822.6,801.1,822.6,875.7,822.6z"/>
<path fill="#524E43" d="M924.2,871.5c108.9,0,217.9,0,326.8,0c2.1,0,4.2,0.1,6.2-0.1c11-0.8,19.9-10,20.3-21.2
	c0.5-10.8-7.7-20.6-18.6-22.3c-3.2-0.5-6.4-0.5-9.6-0.5c-216.7,0-433.5,0-650.2,0c-1.1,0-2.2,0-3.4,0c-1.8,0.1-3.5,0.2-5.3,0.4
	c-9.9,1-19.6,10.2-19.2,22.7c0.4,11.2,9.8,20.4,21.2,20.9c2.1,0.1,4.2,0,6.2,0C707.3,871.5,815.7,871.5,924.2,871.5z"/>
<path fill="#AEDEF8" d="M1350.6,648.1c0-55,0-110,0-165c0-1.6,0.8-3.5-0.8-4.9c-1.6,0.4-2.7,1.6-4,2.6
	c-34.1,26.4-68.3,52.8-102.4,79.3c-1.4,1.1-3.2,2-3.9,3.4c-0.7,1.6,1.2,3.1,1.7,4.7c0.1,0.5,0.3,0.9,0.5,1.3
	c34.2,78.7,68.3,157.4,102.5,236.2c1.6,3.7,3.2,7.3,4.8,11c0.2,0.5,0.5,0.8,1,0.6c0.2-0.1,0.5-0.5,0.5-0.7c0.1-1.6,0.1-3.2,0.1-4.8
	C1350.6,757.2,1350.6,702.6,1350.6,648.1z"/>
<path fill="#CED8DC" d="M640.4,709.5c0-28.5,0-56.9,0-85.4c0-4.6,0-9.3,0-13.9c0-1.1,0.2-2.4-0.3-3.3c-1.3-2.7-2.9-5.3-4.4-7.9
	c-0.4-0.7-0.8,0-1,0.3c-0.7,1.2-1.3,2.6-2,3.8c-6.9,12-20.3,18.3-33.8,15.5c-8.7-1.8-15.5-6.6-20.4-14c-0.7-1.1-1.3-2.2-2-3.3
	c-0.4-0.7-1-0.8-1.5-0.1c-0.7,1-1.3,2.2-2,3.2c-4.1,6.2-9.6,10.6-16.7,13c-1.8,0.6-3.7,0.9-5.6,1.4c-1.3,0.3-1.6,0.8-1.1,2
	c0.6,1.5,1.3,2.9,2,4.4c20.7,44.1,41.5,88.2,62.2,132.3c7.7,16.5,15.5,33,23.3,49.4c0.5,1.2,1.1,2.3,1.7,3.5c0.2,0.4,0.6,0.8,1,0.9
	c0.7,0.1,0.6-0.6,0.6-1c0-1.4,0-2.9,0-4.3C640.4,773.8,640.4,741.7,640.4,709.5z"/>
<path fill="#E8384A" d="M1204.7,561.2c8.2,0,16.3-0.1,24.5,0.1c3.2,0.1,5.8-0.8,8.3-2.8c24-18.7,48-37.2,72-55.8
	c10.2-7.9,20.5-15.9,30.7-23.8c1-0.8,2-1.6,3-2.4c0.2-0.2,0.2-0.6,0.2-0.8c0-0.4-0.3-0.5-0.7-0.6c-1.1,0-2.2-0.1-3.3-0.1
	c-13.6,0-27.2,0.1-40.8-0.1c-3,0-5.5,0.8-7.9,2.6c-13.8,10.1-27.7,20-41.6,30c-23.1,16.6-46.2,33.2-69.3,49.8
	c-1,0.7-2.1,1.5-3.1,2.3c-0.2,0.2-0.4,0.5-0.4,0.8c0,0.6,0.6,0.7,1,0.7c1.3,0,2.6,0.1,3.8,0.1
	C1189.1,561.2,1196.9,561.2,1204.7,561.2z"/>
<path fill="#E8384A" d="M668,561.2c7.5,0,15,0,22.6,0c1.9,0,3.7,0.1,4.9-2.1c0.7-1.3,2.4-2.1,3.7-3c35.7-25.6,71.5-51.3,107.2-76.9
	c1.2-0.8,2.3-1.7,3.5-2.5c0.4-0.3,0.7-0.7,0.5-1.2c-0.1-0.2-0.5-0.3-0.7-0.4c-0.1-0.1-0.3,0-0.5,0c-15.7,0-31.4,0-47,0
	c-1.6,0-2.8,0.6-3.9,1.5c-3.1,2.3-6.2,4.5-9.4,6.7c-34.3,24.7-68.6,49.3-102.8,74c-1.2,0.8-2.3,1.7-3.4,2.6
	c-0.2,0.1-0.2,0.6-0.1,0.9c0.1,0.2,0.4,0.5,0.7,0.5c0.6,0.1,1.3,0.1,1.9,0.1C652.6,561.2,660.3,561.2,668,561.2z"/>
<path fill="#FFEEE9" d="M787.1,561.2c7,0,14.1,0,21.1,0c1.1,0,2.2,0,3.4,0c0.8,0,1.6-0.2,2-1c1.3-2.6,3.9-3.7,6.1-5.3
	c35.3-25.4,70.6-50.7,105.9-76c1-0.7,2.1-1.5,3.1-2.3c0.4-0.3,0.8-0.7,0.5-1.2c-0.2-0.3-0.8-0.4-1.2-0.4c-0.8-0.1-1.6,0-2.4,0
	c-14.2,0-28.5,0-42.7,0c-2.7,0-4.9,0.7-7.1,2.3c-37.3,27-74.6,53.9-112,80.8c-0.8,0.6-1.5,1.1-2.3,1.8c-0.2,0.1-0.2,0.6-0.1,0.9
	c0.1,0.2,0.4,0.5,0.7,0.5c1.3,0.1,2.6,0.1,3.8,0.1C773.1,561.2,780.1,561.2,787.1,561.2z"/>
<path fill="#FFEEE9" d="M964.6,561.2c7.2,0,14.4,0,21.6,0c1.1,0,2.2,0,3.4,0c0.7,0,1.4-0.2,1.7-0.8c1.4-2.7,4.1-3.9,6.4-5.6
	c35-25.2,70.1-50.4,105.2-75.6c1.3-0.9,2.6-1.9,3.8-2.9c0.2-0.1,0.3-0.6,0.2-0.8c-0.1-0.2-0.4-0.4-0.7-0.5c-1-0.1-1.9-0.1-2.9-0.1
	c-14.1,0-28.2,0-42.2,0c-2.7,0-4.9,0.7-7.1,2.3c-12.8,9.3-25.7,18.5-38.5,27.8c-24.3,17.5-48.6,34.9-72.8,52.4
	c-1.2,0.8-2.3,1.8-3.4,2.7c-0.1,0.1-0.2,0.3-0.1,0.4c0.1,0.2,0.3,0.6,0.6,0.6c1.1,0.1,2.2,0.2,3.3,0.2
	C950.2,561.2,957.4,561.2,964.6,561.2z"/>
<path fill="#249A4B" d="M904.6,561.2c7.7,0,15.3,0,23,0c1.9,0,3.6,0,4.8-2.2c0.7-1.3,2.4-2.1,3.7-3c22.4-16.1,44.9-32.3,67.3-48.4
	c13.5-9.7,27-19.4,40.5-29.1c1-0.7,2-1.6,2.9-2.5c0.1-0.1,0-0.8-0.1-0.8c-0.6-0.2-1.2-0.3-1.9-0.3c-14.9,0-29.7,0-44.6,0
	c-1.8,0-3.5,0.2-4.9,1.5c-0.7,0.6-1.6,1.1-2.3,1.7c-23.7,17.1-47.5,34.2-71.2,51.2c-13.2,9.5-26.5,19-39.7,28.6
	c-0.9,0.6-1.7,1.4-2.5,2.2c-0.1,0.1,0,0.8,0.2,0.8c0.8,0.2,1.6,0.3,2.3,0.3C889.5,561.2,897.1,561.2,904.6,561.2z"/>
<path fill="#249A4B" d="M1083.2,561.2c7.2,0,14.4,0,21.6,0c1.1,0,2.2,0,3.4-0.1c0.6,0,1.3-0.1,1.7-0.7c1.2-2.5,3.6-3.6,5.6-5.1
	c35-25.2,70.1-50.4,105.1-75.6c1.4-1,2.8-2.1,4.3-3.1c0.4-0.3,0.7-0.7,0.5-1.2c-0.2-0.5-0.8-0.5-1.2-0.5c-1.3,0-2.6,0-3.8,0
	c-12.5,0-24.9,0.1-37.4-0.1c-4.3-0.1-8.2,0.4-11.3,3.7c-20.1,14.4-40.3,28.8-60.4,43.3c-16.4,11.7-32.8,23.4-49.1,35.2
	c-0.9,0.7-1.8,1.3-2.7,2c-0.5,0.4-1.2,0.7-1.1,1.4c0.1,0.8,0.9,0.7,1.5,0.7c1.1,0,2.2,0,3.4,0
	C1069.7,561.2,1076.5,561.2,1083.2,561.2z"/>
<path fill="#E8384A" d="M1024.3,561.2c7,0,14.1,0,21.1,0c1.1,0,2.2,0,3.4-0.1c0.7,0,1.3-0.2,1.6-0.8c1-2.2,3.1-3.2,4.9-4.5
	c35.9-25.7,71.7-51.4,107.6-77c1.2-0.8,2.3-1.7,3.4-2.6c0.2-0.1,0.1-0.6,0.1-0.9c0-0.1-0.2-0.2-0.4-0.2c-1-0.1-1.9-0.1-2.9-0.1
	c-13.7,0-27.5,0.1-41.2-0.1c-3.2,0-5.8,0.8-8.4,2.7c-36.9,26.6-74,53.2-110.9,79.8c-1,0.7-2.1,1.5-3,2.3c-0.2,0.2-0.3,0.6-0.2,0.8
	c0.1,0.2,0.4,0.5,0.6,0.6c0.6,0.1,1.3,0.1,1.9,0.1C1009.3,561.2,1016.8,561.2,1024.3,561.2z"/>
<path fill="#FFEEE9" d="M608,561.2c5,0,9.9,0,14.9,0c3,0,6.1,0,9.1,0c1,0,2,0,2.5-1c0.8-1.9,2.6-2.8,4.1-3.9
	c22-15.9,44.1-31.8,66.2-47.6c14-10.1,28-20.2,42-30.2c1-0.7,2-1.6,2.9-2.4c0.1-0.1,0-0.8-0.1-0.8c-0.8-0.1-1.6-0.2-2.4-0.2
	c-14.4,0-28.8,0-43.2,0c-2.2,0-3.9,0.7-5.7,1.9c-37.5,27-75,53.9-112.6,80.8c-0.9,0.7-1.8,1.3-2.7,2c-0.2,0.2-0.2,0.6-0.2,0.9
	c0,0.4,0.3,0.5,0.7,0.6c0.6,0,1.3,0.1,1.9,0.1C593,561.2,600.5,561.2,608,561.2z"/>
<path fill="#249A4B" d="M727.5,561.2c7,0,14.1,0,21.1,0c1.1,0,2.2,0,3.4-0.1c0.6,0,1.3-0.1,1.6-0.8c1.1-2.3,3.3-3.4,5.2-4.8
	c18.6-13.5,37.3-26.9,56-40.4c16.7-12.1,33.4-24.1,50.2-36.2c1-0.7,2.1-1.5,3.1-2.3c0.3-0.3,0.7-0.7,0.7-1.1c0.1-0.7-0.6-0.6-1-0.6
	c-0.3-0.1-0.6,0-1,0c-14.5,0-29.1,0-43.6,0c-2.1,0-3.6,0.7-5.2,1.9c-12.2,8.8-24.4,17.5-36.6,26.3c-25.3,18.2-50.7,36.3-76,54.5
	c-1,0.7-2,1.5-3,2.3c-0.2,0.1-0.1,0.6,0,0.9c0,0.1,0.2,0.3,0.3,0.3c1,0.1,1.9,0.2,2.9,0.2C712.8,561.2,720.2,561.2,727.5,561.2z"/>
<path fill="#FFEEE9" d="M1142.3,561.2c7.7,0,15.3,0,23,0c1.7,0,3.1-0.1,4-1.9c0.8-1.6,2.6-2.3,4-3.4c35.5-25.6,71.1-51.1,106.6-76.7
	c1.3-0.9,2.6-1.9,3.8-2.9c0.2-0.1,0.3-0.6,0.2-0.8c-0.1-0.2-0.4-0.5-0.7-0.5c-0.6-0.1-1.3-0.1-1.9-0.1c-14.2,0-28.4,0-42.7-0.1
	c-2.4,0-4.3,0.9-6.1,2.2c-37.5,27-75,53.9-112.5,80.9c-0.8,0.6-1.6,1.1-2.3,1.8c-0.2,0.2-0.2,0.6-0.1,0.9c0.1,0.2,0.4,0.5,0.7,0.5
	c0.6,0.1,1.3,0.1,1.9,0.1C1127.6,561.2,1135,561.2,1142.3,561.2z"/>
<path fill="#E8384A" d="M845.5,561.2C845.5,561.2,845.5,561.2,845.5,561.2c7.8,0,15.7,0,23.5,0c1.3,0,2.4-0.1,3.1-1.6
	c0.7-1.7,2.5-2.4,3.9-3.4c11.5-8.3,23.1-16.6,34.7-24.9c24.3-17.5,48.6-34.9,72.8-52.4c1.2-0.8,2.3-1.7,3.4-2.7
	c0.2-0.1,0.1-0.6,0-0.9c0-0.1-0.2-0.2-0.3-0.2c-0.6-0.1-1.3-0.1-1.9-0.1c-14.1,0-28.2,0.1-42.2-0.1c-2.5,0-4.3,0.9-6.1,2.3
	c-37.3,26.8-74.6,53.5-111.9,80.3c-1,0.7-2.1,1.5-3.1,2.3c-0.2,0.1-0.2,0.6-0.2,0.8c0.1,0.2,0.4,0.5,0.7,0.5
	c1.3,0.1,2.6,0.1,3.8,0.1C832.4,561.2,838.9,561.2,845.5,561.2z"/>
<path fill="#249A4B" d="M665.7,474.9c-7.5,0-15,0-22.5,0c-2,0-3.8,0.4-5.3,1.8c-0.5,0.4-1,0.8-1.5,1.1
	c-35.7,26.8-71.3,53.6-107,80.4c-0.6,0.5-1.3,0.9-1.9,1.5c-0.2,0.2-0.2,0.6-0.1,0.9c0.1,0.2,0.4,0.4,0.7,0.5c0.5,0.1,1,0.1,1.4,0.1
	c14.1,0,28.1,0,42.2,0c1.9,0,3.2-0.4,4.3-2.2c0.7-1.2,2.2-1.8,3.3-2.7c17.1-12.3,34.3-24.6,51.4-36.9c18.8-13.5,37.7-27,56.5-40.5
	c1.2-0.8,2.2-1.8,3.3-2.7c0.1-0.1,0.2-0.3,0.2-0.4c-0.1-0.2-0.4-0.6-0.6-0.6c-1.1-0.1-2.2-0.2-3.3-0.2
	C679.8,474.9,672.8,474.9,665.7,474.9z"/>
<path fill="#3F3B2F" d="M1305.2,871.5C1305.2,871.5,1305.2,871.5,1305.2,871.5c9.8,0,19.5,0,29.3,0c0.3,0,0.6,0,1,0
	c11.3-0.5,20.6-9.5,21.1-21c0.5-13.3-9.9-21.6-18.7-22.5c-2.1-0.2-4.1-0.4-6.2-0.4c-18.2,0-36.5,0-54.7,0c-1,0-1.9,0-2.9,0.1
	c-0.4,0-1,0.4-1.1,0.7c-0.1,0.3,0.3,0.8,0.5,1.2c0.3,0.4,0.7,0.7,1,1c10.8,10.7,10.7,27.7-0.1,38.3c-0.5,0.4-0.9,0.9-1.3,1.4
	c-0.2,0.2-0.3,0.6-0.2,0.8c0.1,0.2,0.4,0.5,0.7,0.5c1.3,0.1,2.6,0.1,3.8,0.1C1286.6,871.5,1295.9,871.5,1305.2,871.5z"/>
<path fill="#E8384A" d="M1202.8,566c-8.3,0-16.6,0-24.9,0c-1.1,0-2.2,0-3.4,0c-1.8,0.1-2.2,0.4-2.2,2.4c-0.1,6.9-0.2,13.7,0.4,20.6
	c1.3,14.1,13,23.8,24.5,25.1c13.4,1.5,24-3.9,31.9-14.6c2.7-3.7,4-7.9,3.9-12.6c-0.1-5.4,0-10.9,0-16.3c0-0.3,0-0.6,0-1
	c-0.1-3.6-0.1-3.6-3.9-3.6c-1,0-1.9,0-2.9,0C1218.5,566,1210.6,566,1202.8,566z"/>
<path fill="#FFEEE9" d="M605.8,566c-7.3,0-14.7,0-22,0c-1.1,0-2.2,0-3.4,0c-1.8,0.1-2.1,0.5-2.2,2.4c0,0.5,0,1,0,1.4
	c0,6.2,0,12.5-0.1,18.7c0,2.1,0.5,4.1,1,6.1c4.1,14.8,20,23.3,34.4,18.4c10.4-3.5,17.9-13.6,18.5-24.6c0.1-1.3,0-2.6,0.2-3.8
	c1.3-5.7,0.5-11.4,0.5-17.1c0-0.9-0.7-1.4-1.5-1.5c-1.1-0.1-2.2-0.1-3.3-0.1C620.5,566,613.2,566,605.8,566z"/>
<path fill="#FFEEE9" d="M963.2,566c-1,0-1.9,0-2.9,0c-7.2,0-14.4,0-21.6,0c-3.3,0-3.4,0.2-3.5,3.6c0,6.1-0.1,12.1,0,18.2
	c0,2.1,0.4,4.1,0.9,6.1c2.7,11.1,12.7,19.5,23.9,20.4c14,1.2,25.1-8.7,28.1-19.9c0.7-2.5,1-5,1-7.6c0-2.6,1.5-4.8,1.2-7.5
	c-0.3-2.5-0.1-5.1-0.1-7.7c0-1.1,0-2.2,0-3.4c-0.1-1.9-0.5-2.3-2.2-2.4c-1.1-0.1-2.2,0-3.4,0C977.6,566,970.4,566,963.2,566z"/>
<path fill="#FFEEE9" d="M784.1,566c-7.4,0-14.7,0-22.1,0c-1.1,0-2.2,0-3.4,0c-1.8,0.1-2.1,0.4-2.2,2.4c0,0.8,0,1.6,0,2.4
	c0,5.6-0.1,11.2-0.1,16.8c0,13.6,10.8,25.4,24,26.7c15.3,1.5,27.2-9.7,29.2-22.1c0.9-5.8,2-11.6,1.7-17.5c-0.1-2.1,0-4.2-0.1-6.2
	c-0.1-1.9-0.4-2.3-2.2-2.4c-1.1-0.1-2.2,0-3.4,0C798.4,566,791.3,566,784.1,566z"/>
<path fill="#E8384A" d="M843.8,566C843.8,566,843.8,566,843.8,566c-8.5,0-16.9,0-25.4,0c-1.9,0-2.2,0.4-2.3,2.3
	c-0.3,7.8-0.1,15.6,1,23.4c2.3,15.1,17.7,26.5,33.9,21.6c10.9-3.3,17.3-11,19.2-22.3c0.4-2.5,0.8-5.1,0.8-7.6
	c0.1-5.3,0.1-10.5,0.1-15.8c0-0.9-0.5-1.5-1.5-1.5c-1.3-0.1-2.6-0.1-3.8-0.1C858.5,566,851.1,566,843.8,566z"/>
<path fill="#E8384A" d="M665.6,566c-7.5,0-15,0-22.5,0c-1.3,0-2.6,0-3.8,0.1c-0.9,0.1-1.4,0.6-1.5,1.5c-0.1,0.8-0.1,1.6-0.1,2.4
	c-0.3,6.9,0.2,13.7,1,20.5c1.5,12,10.5,21.7,22.5,23.6c17.7,2.8,30.8-11.4,31.2-26c0.2-5.6,0.2-11.2,0.3-16.7c0-1.1,0-2.2-0.1-3.3
	c-0.1-1.5-0.5-1.8-2.1-1.9c-1-0.1-1.9,0-2.9,0C680.2,566,672.9,566,665.6,566z"/>
<path fill="#249A4B" d="M724.6,566c-7.2,0-14.4,0-21.6,0c-1.3,0-2.6,0-3.8,0.1c-0.9,0.1-1.5,0.6-1.5,1.5c-0.1,0.8-0.1,1.6-0.1,2.4
	c0,5.9-0.1,11.8-0.1,17.7c0,1.3,0.2,2.5,0.4,3.8c1.7,12.2,13.2,23.7,28.1,22.9c12.8-0.7,24.6-11.7,25.3-25.6
	c0.1-1.6,0.2-3.2,0.2-4.8c0-5.1,0.1-10.2,0-15.3c0-2.4-0.4-2.6-2.9-2.7c-0.6,0-1.3,0-1.9,0C739.3,566,732,566,724.6,566z"/>
<path fill="#249A4B" d="M903.4,566C903.4,566,903.4,566,903.4,566c-8.2,0-16.3,0-24.5,0c-2.5,0-2.8,0.3-2.9,2.7
	c-0.2,7.3,0,14.7,0.7,22c0.1,1.4,0.5,2.8,0.9,4.2c4.3,14.6,20,23.1,34.2,18.1c10.2-3.6,16.5-11,18.2-21.6c1.3-7.9,0.5-15.9,0.4-23.9
	c0-0.9-0.7-1.4-1.6-1.4c-1.3-0.1-2.6-0.1-3.8-0.1C917.8,566,910.6,566,903.4,566z"/>
<path fill="#FFEEE9" d="M1140.2,566c-7.3,0-14.7,0-22,0c-1.3,0-2.6,0-3.8,0.1c-1.2,0-1.7,0.7-1.7,1.8c0,0.3,0,0.6,0,1
	c-0.1,6.7-0.5,13.4-0.1,20.1c0.6,10.4,5.9,18.2,15.2,22.7c9.2,4.5,18.3,3.8,26.8-2.1c7.4-5.1,11.2-12.5,11.8-21.4
	c0.1-1.3-0.4-2.6,0.4-3.8c1.1-1.6,0.9-3.3,0.9-5.1c0-3.2,0-6.4,0-9.6c0-0.8-0.1-1.6-0.2-2.4c-0.1-0.7-0.6-1.2-1.3-1.2
	c-1.3-0.1-2.5-0.1-3.8-0.1C1154.9,566,1147.6,566,1140.2,566z"/>
<path fill="#249A4B" d="M1080.3,566c-4.5,0-8.9,0-13.4,0c-3.8,0-7.7,0-11.5,0.1c-1.6,0-2,0.5-2.1,2c-0.1,4.2,0.1,8.3-0.1,12.5
	c-0.2,5.4,1,10.5,2.9,15.4c1.8,4.7,4.4,8.9,8.1,12.3c4.8,4.4,10.5,6.7,17,6.4c14.2-0.6,25.5-12.1,26.1-26.3c0.1-1.6,0.3-3.2,0.3-4.8
	c0-5.1,0.1-10.2,0-15.3c0-1.8-0.5-2.1-2.4-2.2c-1,0-1.9,0-2.9,0C1095,566,1087.7,566,1080.3,566z"/>
<path fill="#249A4B" d="M519.4,578.9C519.3,578.9,519.3,578.9,519.4,578.9c0,2.6,0,5.1,0,7.7c-0.1,5.4,1.4,10.4,4.3,15
	c6.5,10.2,18.6,14.8,29.5,11.7c11.3-3.1,19.5-13.4,20-25.4c0.2-5.9,0.2-11.8,0.2-17.7c0-4.1,0-4.2-4.3-4.2c-15.2,0-30.4,0-45.6,0
	c-0.8,0-1.6,0-2.4,0.1c-1.2,0-1.7,0.7-1.8,1.8C519.3,571.5,519.4,575.2,519.4,578.9z"/>
<path fill="#E8384A" d="M1022,566c-7,0-14.1,0-21.1,0c-1.3,0-2.6,0-3.8,0.1c-0.9,0-1.5,0.5-1.6,1.4c-0.1,0.5-0.1,1-0.1,1.4
	c-0.1,6.9-0.2,13.8,0.5,20.6c1.7,17.3,18.6,29.6,36.8,23.2c4.7-1.6,8.3-4.8,10.9-9c1.4-2.2,2.4-4.5,3-7c0.6-2.5,1-5,1.4-7.5
	c0.9-7,0.6-14,0.5-21.1c0-1.5-0.5-2-2-2.1c-1.1-0.1-2.2,0-3.4,0C1036.1,566,1029.1,566,1022,566z"/>
<path fill="#FFEEE9" d="M1111.2,754.2c0.1,0,0.1,0,0.2,0c0,7.8,0,15.7,0,23.5c0,1,0,1.9,0.1,2.9c0.1,0.9,0.7,1.4,1.6,1.4
	c0.3,0,0.6,0,1,0c10.7,0,21.4,0,32.1,0c4.2,0,4.3-0.1,4.3-4.3c0-0.3,0-0.6,0-1c-0.1-15.3-0.1-30.7-0.2-46c0-1,0-1.9-0.1-2.9
	c-0.1-0.7-0.5-1.2-1.2-1.3c-0.6-0.1-1.3-0.1-1.9-0.1c-10.9,0-21.7,0-32.6,0.1c-0.6,0-1.3,0-1.9,0.1c-0.7,0.1-1.2,0.6-1.2,1.2
	c-0.1,1.1-0.2,2.2-0.2,3.3C1111.2,738.9,1111.2,746.6,1111.2,754.2z"/>
<path fill="#F7AB00" d="M1216.2,797.8c0,0.1,0,0.2,0,0.4c10.6,0,21.1,0,31.7,0c1.6,0,3.2,0,4.8,0c2.1-0.1,2.7-0.4,3.1-2.2
	c1.7-6.6,1.7-13.3,0-19.9c-0.3-1.1-0.9-1.7-2-1.7c-1.3-0.1-2.6-0.1-3.8-0.1c-18.2-0.1-36.5-0.1-54.7-0.1c-4.8,0-9.6,0-14.4,0
	c-2.6,0-3,0.4-3.5,3c-1.1,5.5-1.4,11.1-0.2,16.7c0.8,3.9,0.9,4.1,5,4.1C1193.5,797.8,1204.8,797.8,1216.2,797.8z"/>
<path fill="#FFEEE9" d="M1216.7,768.9c0,0.1,0,0.1,0,0.2c10.2,0,20.4,0,30.7,0c1.4,0,2.9,0,4.3-0.1c0.7,0,1.1-0.5,0.9-1.3
	c-0.1-0.5-0.4-0.9-0.6-1.3c-2.7-5-6.3-9.3-10.8-12.6c-1.9-1.4-2.6-3-2.5-5.3c0.1-2.7,0-5.4,0-8.1c0-1.4-0.6-2-2.1-2.1
	c-1-0.1-1.9-0.1-2.9-0.1c-11,0-22,0-33.1,0c-0.8,0-1.6,0-2.4,0c-2.1,0.1-2.6,0.5-2.6,2.5c-0.1,2.4-0.1,4.8,0,7.2
	c0.2,2.6-0.5,4.5-2.9,6c-2,1.2-3.8,2.9-5.5,4.6c-2.5,2.5-4.6,5.3-6.1,8.5c-0.6,1.1-0.2,1.8,1.2,1.9c0.8,0,1.6,0,2.4,0
	C1195.3,768.9,1206,768.9,1216.7,768.9z"/>
<path fill="#FFEEE9" d="M1217,803.2C1217,803.1,1217,803.1,1217,803.2c-8.6-0.1-17.2-0.1-25.9-0.1c-2.9,0-5.7-0.1-8.6-0.1
	c-1.6,0-2.1,0.7-1.4,2.1c2.7,5.2,6.4,9.5,11,13.1c1.2,0.9,2.5,1.3,4,1.3c13.6,0,27.1,0,40.7,0.1c1.3,0,2.5-0.3,3.6-1.1
	c4.8-3.6,8.7-8,11.5-13.3c0.6-1.2,0.3-1.9-0.9-1.9c-1,0-1.9,0-2.9,0C1237.8,803.2,1227.4,803.2,1217,803.2z"/>
<path fill="#FFEEE9" d="M1131.1,797.1c0,0.1,0,0.1,0,0.2c-5.6,0-11.2,0-16.7,0c-2.5,0-2.7,0.3-2.7,2.8c0,5.4,0,10.8,0,16.3
	c0,0.5,0,1,0.1,1.4c0.1,0.7,0.6,1.2,1.3,1.2c0.9,0.1,1.9,0.2,2.9,0.2c7.3,0,14.7,0,22,0c3.7,0,7.3-0.2,11-0.3c1.1,0,1.8-0.6,1.8-1.7
	c0.1-1.9,0.1-3.8,0.1-5.7c-0.1-4.1-0.1-8.3-0.2-12.4c0-1.1-0.6-1.8-1.8-1.8c-0.8,0-1.6-0.1-2.4-0.1
	C1141.3,797.1,1136.2,797.1,1131.1,797.1z"/>
<path fill="#E8384A" d="M1130.6,792.1c0-0.1,0-0.1,0-0.2c4.2,0,8.3,0,12.5,0c1.9,0,3.8,0,5.7-0.1c1.2,0,1.7-0.7,1.7-1.8
	c0-0.3,0-0.6,0-1c-0.1-1.6-0.4-2.1-1.9-2.1c-1,0-1.9,0-2.9,0c-9.4,0-18.8,0-28.3,0c-1.1,0-2.2,0-3.4,0.1c-2.3,0.1-2.8,0.6-2.7,2.9
	c0,1.5,0.5,2.1,1.9,2.2c1.1,0.1,2.2,0.1,3.4,0.1C1121.3,792.1,1126,792.1,1130.6,792.1z"/>
<path fill="#E8384A" d="M1131,714.8C1131,714.8,1131,714.8,1131,714.8c-4.2,0.1-8.3,0.1-12.5,0.1c-1.1,0-1.8,0.5-1.9,1.7
	c0,0.8,0,1.6,0,2.4c0.1,2.3,0.2,2.6,2.4,2.6c7.8,0,15.7,0,23.5-0.1c1.9,0,2.3-0.5,2.4-2.2c0-0.6,0-1.3,0-1.9
	c-0.1-2.2-0.4-2.5-2.5-2.6C1138.7,714.7,1134.8,714.8,1131,714.8z"/>
<path fill="#F7AB00" d="M1216.6,727.5C1216.6,727.4,1216.6,727.4,1216.6,727.5c-1.1-0.1-2.2-0.1-3.3-0.1c-2.1,0-4.1,0-6.2,0
	c-1.8,0.1-2.1,0.4-2.2,2.3c0,0.3,0,0.6,0,1c0,2.1,0.3,2.4,2.6,2.4c5.7,0,11.5,0,17.2,0c3.6,0,3.8-0.3,3.6-3.8c0-0.2,0-0.3,0-0.5
	c-0.1-0.9-0.6-1.4-1.5-1.4C1223.3,727.4,1219.9,727.5,1216.6,727.5z"/>
<path fill="#F7AB00" d="M1214.4,709.8c-0.1,0.7-0.2,2.1-0.3,3.6c-0.1,2.2-0.3,4.5-0.4,6.7c0,2.1,0.3,2.4,2.6,2.4c0.5,0,1,0,1.4,0
	c0.9-0.1,1.4-0.6,1.5-1.5c0-0.8,0-1.6,0-2.4c-0.3-6.8-0.6-13.7-1-20.5c0-0.6-0.1-1.3-0.3-1.9c-0.2-0.6-0.7-1-1.5-1
	c-0.7,0-1.2,0.5-1.4,1.1c-0.2,0.7-0.2,1.6-0.3,2.4C1214.7,702,1214.6,705.5,1214.4,709.8z"/>
<path fill="#E8384A" d="M1133.2,699.5c-0.1-2.7-0.2-5.8-0.4-9c-0.1-1.5-1.1-2.2-2.6-2c-1.1,0.2-1.6,1-1.7,2c-0.2,3.3-0.3,6.7-0.4,10
	c-0.1,2.5-0.2,5.1-0.2,7.6c0,0.8,0.4,1.6,1.4,1.6c0.9,0,1.9,0.1,2.9,0c0.9-0.1,1.4-0.7,1.4-1.6
	C1133.6,705.4,1133.4,702.7,1133.2,699.5z"/>
<path fill="#2D3130" d="M1186.2,1009.6c0-20.3,0-40.6,0-61c0-2.4,0.1-4.8,0.5-7.2c1.7-11.4,11.6-19.6,23.3-19.2
	c11.4,0.4,21,9.6,21.8,21c0.1,1.6,0.1,3.2,0.1,4.8c0,26.9,0,53.8,0,80.6c0,1.4-0.1,2.9,0.1,4.3c0.4,3.6,3.3,6.2,6.7,6.3
	c3.4,0,6.4-2.6,6.8-6.2c0.1-0.9,0.1-1.9,0.1-2.9c0-10.2,0-20.5-0.1-30.7c0-2.1,0.1-4.1,0.6-6.2c2.4-8.8,10.5-14.4,19.6-13.5
	c8.6,0.9,15.5,8.2,16,17.1c0,0.8,0,1.6,0,2.4c0,12.6,0,25.3,0,37.9c0,9.6-2.2,18.7-6.7,27.2c-8,15.2-20.8,23.4-37.7,25.5
	c-1,0.1-1.9,0.1-2.9,0.2c-2.1,0.2-2.5,0.6-2.6,2.6c-0.1,1,0,1.9,0,2.9c0,21.9,0,43.8,0,65.8c0,1,0,1.9,0,2.9
	c0.1,1.8,0.6,2.2,2.5,1.6c1.2-0.4,2.4-0.8,3.6-1.3c12.5-4.4,25.5-6,38.7-6c11.3,0,22.2,2.7,32.6,7.1c11.3,4.7,21.7,10.9,31.7,17.9
	c2,1.4,4,2.4,6.4,3c10.3,2.4,20,6.5,29.5,11.4c4.3,2.2,8.4,4.5,12.7,6.8c1.2,0.6,1.9,0.3,1.9-1c0.1-2.4,0.1-4.8,0.1-7.2
	c0-5.8,0-11.5,0-17.3c0-3.2-0.2-3.4-3.6-3.6c-3.9-0.2-7.6-0.9-11.3-1.9c-13.6-3.8-23.4-12.1-29.6-24.7c-3.9-8-5.8-16.6-6.4-25.4
	c-0.1-1.9-0.1-3.8-0.1-5.8c0-22.4,0-44.8,0-67.2c0-1.3,0-2.6,0.1-3.8c0.7-9.5,8.1-17,17.7-17.7c10.2-0.7,17.8,6.3,19.7,14.3
	c0.6,2.5,0.7,5.1,0.7,7.6c0,21.8,0,43.5,0,65.3c0,1.4-0.1,2.9,0.1,4.3c0.3,3.4,3,6,6.3,6c3.3,0,6-2.5,6.4-6c0.2-1.6,0.1-3.2,0.1-4.8
	c0-34.1,0-68.2,0-102.2c0-2.6,0.1-5.1,0.7-7.6c2.5-9.6,10.8-16.3,20.4-16.7c10.7-0.5,19.5,6.6,22.3,15.6c0.8,2.8,0.9,5.7,0.9,8.5
	c0,15.2,0,30.4,0,45.6c0,18.4,0,36.8,0,55.2c0,1.8,0,3.5,0.3,5.3c0.7,3.5,3.6,5.6,6.9,5.3c3.1-0.3,5.6-2.7,5.9-6
	c0.1-1.3,0.1-2.6,0.1-3.8c0-13.6,0-27.2,0-40.8c0-2.1,0-4.1,0.5-6.2c2.3-8.7,10-14.1,19.1-13.3c8.3,0.8,14.9,7.7,15.6,16.3
	c0.1,1,0.1,1.9,0.1,2.9c0,16.3,0,32.6,0,49c0,8.9-1.9,17.5-5.9,25.5c-7,14.2-18.3,22.7-33.9,25.5c-2.2,0.4-4.4,0.6-6.7,0.9
	c-1.5,0.2-1.9,0.6-2,2.2c-0.1,1-0.1,1.9-0.1,2.9c0,14.9,0,29.8,0,44.6c0,1,0,1.9,0.1,2.9c0.1,1,0.6,1.8,1.6,2.2
	c1,0.4,2.1,0.8,3.1,1.2c14.9,5.8,30.4,9.9,46.2,12.4c14.7,2.3,29.5,3.4,44.4,3.6c1.1,0,2.2,0,3.3,0.2c1.1,0.2,1.6,1,1.7,2
	c0.1,1.1-0.7,2.3-1.8,2.4c-1.3,0.1-2.6,0.2-3.8,0.2c-10.2,0-20.5-0.7-30.6-1.7c-14.7-1.5-29.1-4.3-43.2-8.4
	c-16.2-4.7-31.6-11.3-46.4-19.3c-8.2-4.4-16.2-9-24.3-13.5c-8.8-4.9-17.7-9.6-27.1-13.2c-11.2-4.2-22.7-6.6-34.7-6.5
	c-6.8,0-13.3,1.3-19.7,3.6c-8.3,3.1-15.9,7.5-23.2,12.4c-7.3,4.9-14.2,10.5-21.1,15.9c-5.9,4.7-11.8,9.3-17.8,13.9
	c-4.2,3.2-8.7,6-13.4,8.4c-4,2-8.2,3.6-12.8,3.9c-1.1,0.1-2.2,0-3.3-0.2c-0.8-0.1-1.4-0.8-1.5-1.7c-0.1-1,0.2-1.9,1.2-2.4
	c0.7-0.3,1.5-0.5,2.3-0.5c4.6-0.2,8.7-1.9,12.7-4c4.6-2.3,8.8-5.2,12.9-8.3c7.2-5.6,14.4-11.2,21.5-16.9
	c6.5-5.1,13.1-10.2,20.2-14.7c6.5-4.2,13.2-7.8,20.4-10.5c7.1-2.6,14.4-4.1,22.1-3.9c1.8,0,3.5,0.1,5.3,0.1c0.2,0,0.6-0.2,0.7-0.4
	c0.1-0.2,0-0.6-0.1-0.8c-0.2-0.2-0.5-0.4-0.7-0.6c-11.4-7.2-23.3-13.3-36.6-16.5c-6.6-1.6-13.2-2.1-20-2
	c-21.2,0.2-40.6,6.3-58.6,17.4c-6.9,4.3-13.7,8.8-20.5,13.3c-8.5,5.7-17,11.4-25.8,16.6c-18.9,11.3-39,19.8-60.2,25.9
	c-15.8,4.6-32,7.7-48.3,9.9c-23.5,3.2-47.1,4.6-70.8,4.6c-1.3,0-2.6,0-3.8-0.1c-1.2-0.1-2-1.2-2-2.3c0-1.2,0.8-2.1,2.1-2.2
	c1-0.1,1.9-0.1,2.9-0.1c15.8,0,31.7-0.7,47.5-2c19.1-1.6,38.1-4.3,56.8-8.7c1.1-0.3,2.2-0.5,3.3-0.8c1.6-0.4,1.9-1,1.4-2.4
	c-0.4-1-0.9-2-1.4-3.1c-2.8-6.1-5.5-12.2-8.3-18.4c-0.5-1.2-1-2.4-1.3-3.6c-0.2-0.8,0.3-1.6,1-2c0.9-0.5,1.9-0.6,2.7,0.2
	c0.7,0.7,1.2,1.5,1.5,2.4c1.7,3.8,3.4,7.6,5.1,11.4c0.4,0.9,0.8,1.7,1.3,2.6c0.1,0.2,0.6,0.2,0.8,0.2c0.1,0,0.3-0.2,0.3-0.3
	c0.1-1,0.2-1.9,0.2-2.9c0-7.2,0-14.4,0-21.6c0-1.3,0-2.6,0.3-3.8c0.2-1,1-1.6,2.1-1.7c1.1,0,1.9,0.6,2.2,1.6
	c0.3,1.1,0.3,2.2,0.3,3.3c0,6.7,0,13.4,0,20.2c0,1.1-0.1,2.2,0,3.4c0.1,0.7-0.4,1.8,0.7,1.9c0.8,0.1,1-1,1.4-1.7
	c0.4-0.9,0.8-1.8,1.2-2.6c1.5-3.2,2.9-6.4,4.4-9.6c0.4-0.9,0.8-1.8,1.4-2.5c0.7-0.8,1.7-0.9,2.6-0.5c1,0.4,1.4,1.4,1.2,2.3
	c-0.2,1.1-0.7,2.1-1.1,3.1c-2.4,5.4-4.8,10.8-7.3,16.2c-0.5,1-0.9,2-1.3,3.1c-0.3,0.9,0.3,1.5,1.3,1.2c1.1-0.3,2.2-0.6,3.2-0.9
	c20.8-6.3,40.3-15.3,58.8-26.7c4.6-2.9,9.1-5.9,13.7-8.8c1.3-0.9,2.1-1.9,2-3.5c-0.1-1,0-1.9,0-2.9c0-17,0-33.9,0-50.9
	c0-1.1,0-2.2-0.1-3.4c-0.1-1.6-0.4-2-2-2.1c-3.8-0.3-7.6-0.8-11.4-1.7c-15.4-3.7-26.3-12.7-32.8-27c-4.2-9.1-6.1-18.8-6.1-28.9
	c0-20.2,0-40.3,0-60.5c0-10.4,0-20.8,0-31.2c0-6,2.3-10.9,6.9-14.7c5.7-4.8,12.3-6,19.3-3.4c7,2.6,11.2,7.8,12.4,15.2
	c0.4,2.2,0.4,4.5,0.4,6.7c0,28,0,56,0,84c0,1.6-0.1,3.2,0.1,4.8c0.4,3.8,3.1,6.2,6.7,6.1c3.4-0.1,6-2.4,6.4-5.9
	c0.2-1.4,0.1-2.9,0.1-4.3C1186.2,1050.9,1186.2,1030.3,1186.2,1009.6z"/>
<path fill="#249A4B" d="M1191.2,1009.8c0,20.8,0,41.6,0,62.4c0,1.8,0,3.5-0.3,5.2c-1.1,5.6-5.6,9.3-11.2,9.3
	c-5.6,0-10.1-3.6-11.4-9.1c-0.4-1.9-0.3-3.8-0.3-5.7c0-28.1,0-56.3,0-84.4c0-1.8,0-3.5-0.1-5.3c-0.7-7.7-7.2-13.7-14.8-13.5
	c-7.6,0.2-14,6.3-14.4,14c-0.1,1.4,0,2.9,0,4.3c0,26.5,0,53.1,0,79.6c0,3.4-0.1,6.7,0,10.1c0.4,10.2,2.7,19.9,7.7,28.9
	c5.2,9.1,12.7,15.5,22.6,19c5,1.8,10.2,2.7,15.5,3c6.2,0.3,6.6-0.5,6.6,7.3c-0.1,16.5,0,32.9,0,49.4c0,1.4,0,2.9,0.1,4.3
	c0.1,0.7,0.6,1.2,1.3,0.8c1.4-0.8,2.7-1.6,4.1-2.5c8.2-5.5,16.6-10.9,25.4-15.4c5.5-2.8,4.9-1.5,4.9-7.8c0-23.7,0-47.3,0-71
	c0-1.4,0-2.9,0.1-4.3c0.1-1.5,0.9-2.3,2.4-2.5c0.9-0.1,1.9-0.1,2.9-0.2c2.9,0,5.7-0.4,8.6-1c12.3-2.4,21.7-9,28.2-19.7
	c5.1-8.4,7.5-17.6,7.6-27.4c0.1-12.6,0-25.3,0-37.9c0-1.6-0.1-3.2-0.5-4.8c-1.5-5.8-6.6-10-12.4-10.2c-5.8-0.2-11.2,3.8-13,9.5
	c-0.6,2-0.7,4.1-0.7,6.2c0,10.1,0.1,20.2,0.1,30.2c0,1.1,0,2.2-0.1,3.4c-0.6,6.1-5.6,10.4-11.8,10.2c-5.9-0.1-10.7-4.5-11.2-10.4
	c-0.1-1.6-0.1-3.2-0.1-4.8c0-26.7,0-53.4,0-80.1c0-1.4,0.1-2.9,0-4.3c-0.7-10.6-8.8-17.6-18.1-17.4c-10.8,0.2-17.5,8.9-17.6,17.4
	c0,1.6-0.1,3.2-0.1,4.8C1191.2,969.5,1191.2,989.6,1191.2,1009.8z"/>
<path fill="#278945" d="M1396.2,1065.8c0,17.1,0,34.2,0,51.3c0,1.6,0,3.2-0.2,4.8c-0.7,5.7-5.5,9.7-11.3,9.6
	c-5.8-0.1-10.4-4.4-10.9-10.1c-0.1-1.4-0.1-2.9-0.1-4.3c0-21.8,0-43.5,0-65.3c0-2.2,0-4.5-0.5-6.7c-1.5-6.4-6.8-10.9-13.3-11.1
	c-6.3-0.2-11.9,3.7-14,9.7c-0.8,2.3-0.8,4.7-0.8,7.1c0,21.8,0,43.5,0,65.3c0,2.1,0,4.2,0.1,6.2c0.6,8.8,2.4,17.4,6.5,25.4
	c5.3,10.3,13.4,17.4,24.5,20.9c4.4,1.4,9,2.3,13.7,2.3c1.3,0,2.6,0,3.8,0.2c1.5,0.2,2.3,1,2.4,2.5c0.1,1.3,0.1,2.6,0.1,3.8
	c0,9.3,0.1,18.6,0,27.8c0,2.3,0.6,3.8,2.7,5c9.1,5,18.2,10,27.6,14.4c4.3,2,4.3,2,4.3-2.9c0-15,0-30.1,0-45.1c0-1.3-0.1-2.6,0.1-3.8
	c0.2-2,1.1-2.9,3.1-2.9c3.2-0.1,6.4-0.4,9.5-0.9c13.1-2.3,22.9-9.3,29.4-20.9c4.2-7.6,6.4-15.7,6.5-24.3c0.2-16.8,0.1-33.6,0.1-50.4
	c0-1.8-0.3-3.5-0.8-5.2c-1.7-5.2-6.6-8.7-12-8.8c-5.2-0.1-10.1,3.2-12,8.1c-0.6,1.5-0.8,3.1-1,4.7c-0.2,1.3,0,2.6,0,3.8
	c0,13.6,0,27.2,0,40.8c0,1.9,0.1,3.8-0.7,5.7c-1.9,4.7-6.2,7.4-11.4,7.1c-4.8-0.2-8.7-3.4-10.2-8.1c-0.7-2.2-0.6-4.4-0.6-6.7
	c0-33.3,0-66.5,0-99.8c0-1.6,0-3.2-0.1-4.8c-0.5-8.4-7.3-15.4-15.7-16.1c-8.4-0.7-16.2,4.9-18.3,13.1c-0.5,2.2-0.6,4.4-0.6,6.7
	C1396.2,1031.3,1396.2,1048.6,1396.2,1065.8z"/>
<path fill="#2D3130" d="M700.8,1054.8c-12.2,0.2-22.9-3.1-32.7-9.5c-0.5-0.3-1.1-0.7-1.6-1.1c-2.1-1.4-2.2-1.4-3.9,0.7
	c-9.1,11.8-18.4,23.4-28.1,34.7c-10.2,11.9-20.7,23.6-32.4,34.1c-4.8,4.3-9.7,8.3-15.3,11.6c-2.9,1.7-5.9,3.1-9.3,3.7
	c-7.5,1.3-12.9-4.2-11.5-11.7c0.6-3,1.8-5.8,3.3-8.5c2.7-4.8,6-9.1,9.5-13.3c8.4-9.9,17.7-18.9,27.3-27.6
	c13.4-12.2,27.3-23.7,41.5-34.9c1-0.8,2-1.6,2.9-2.5c0.3-0.2,0.4-1,0.2-1.3c-0.6-1.1-1.4-2.1-2.1-3.2c-6.9-10.5-10.2-22-9.7-34.5
	c0.3-8.2,2-16.2,5.3-23.7c10.4-23.9,27.7-40.8,52.4-49.7c14.2-5.1,28.7-5.6,42.7,0.4c20.4,8.7,33.8,23.7,38.8,45.6
	c2.2,9.7,1.4,19.4-1.3,28.9c-7.8,28.5-33.2,53.1-61.9,60.1C710.1,1054.4,705.2,1055,700.8,1054.8z"/>
<path fill="#FFEEE9" d="M735,1001.2c0,0,0-0.1,0-0.1c2.4,0,4.8-0.1,7.2,0c1.3,0,2.1,0.8,2.2,2.1c0.1,1.1,0.1,2.2,0,3.3
	c-0.1,3-0.2,6.1-0.3,9.1c0,2.9,0.2,3.1,2.9,3c2.9-0.1,5.8-0.4,8.6-0.3c2.3,0,3.9-0.9,5.2-2.7c4.2-6.1,7.7-12.5,10.1-19.5
	c2-6,2.2-4.8-2.1-9.1c-17.2-17.1-34.5-34.2-51.8-51.3c-4.2-4.2-8.4-8.3-12.6-12.5c-1.3-1.3-2.5-1.6-4.3-1.1
	c-8.5,2.7-16.2,6.7-23.3,12c-0.9,0.7-1.6,1.5-1.6,2.8c-0.1,3.8-0.2,7.7-0.3,11.5c0,1.1,0.6,1.7,1.9,1.7c2.9-0.1,5.7-0.3,8.6-0.4
	c1.4-0.1,2.9-0.3,4.3-0.2c1.8,0,2.7,0.9,2.8,2.6c0.1,1,0,1.9,0,2.9c-0.1,3-0.2,6.1-0.3,9.1c-0.1,3.1,0.2,3.4,3.2,3.3
	c3.2-0.1,6.4-0.5,9.6-0.6c4.5-0.2,5,0.3,4.9,4.8c-0.1,3.7-0.2,7.3-0.3,11c0,1.5,0.6,2,2.1,2c3-0.1,6.1-0.4,9.1-0.6
	c6.5-0.3,6.6-0.3,6.4,6.1c0,0.6-0.1,1.3-0.1,1.9c-0.1,2.4-0.2,4.8-0.2,7.2c0,2.2,0.4,2.6,2.5,2.5
	C731.1,1001.5,733.1,1001.3,735,1001.2z"/>
<path fill="#FFEEE9" d="M711.6,1007.2c0.1,0,0.3,0,0.4,0c0-2.1,0-4.2,0-6.2c0-1.5-0.4-2-2-2c-3,0.1-6.1,0.3-9.1,0.4
	c-1.3,0.1-2.6,0.2-3.8,0.2c-1.8,0-2.7-0.9-2.8-2.6c-0.1-1,0-1.9,0-2.9c0.1-2.7,0.1-5.4,0.3-8.1c0.2-4.7,0.1-4.4-4.4-4.1
	c-2.2,0.1-4.5,0.3-6.7,0.5c-6.4,0.4-6.6,0.2-6.4-6c0.1-2.1,0.1-4.2,0.2-6.2c0-1,0.1-1.9,0.1-2.9c0-2.3-0.4-2.7-2.9-2.6
	c-3,0.1-6.1,0.4-9.1,0.6c-1.1,0.1-2.2,0.1-3.4,0c-1.3-0.1-2.1-0.8-2.2-2.1c-0.1-1.3-0.1-2.6-0.1-3.8c0-2.1,0-4.1,0-6.2
	c0-0.4-0.2-0.7-0.6-0.6c-0.3,0-0.6,0.1-0.8,0.3c-0.5,0.6-1,1.2-1.5,1.9c-4.1,6-7.4,12.3-9.7,19.2c-2,6-1.7,5.1,1.9,8.7
	c14.5,14.4,29,28.8,43.5,43.2c6.9,6.9,13.9,13.7,20.8,20.6c1.3,1.3,2.4,1.6,4.2,1.1c8.5-2.6,16.2-6.7,23.4-11.9
	c0.3-0.2,0.5-0.4,0.7-0.6c0.2-0.2,0.3-0.6,0.3-0.8c-0.1-0.2-0.4-0.5-0.6-0.5c-2.4,0-4.8,0.1-7.2,0.2c-5.1,0.2-5.4-0.1-5.3-5.3
	c0.1-3,0.3-6.1,0.4-9.1c0.1-3,0-3.2-3.2-3.1c-2.9,0.1-5.7,0.2-8.6,0.4c-1,0-1.9,0.2-2.9,0.2c-2,0-3-0.9-3-2.9
	C711.6,1011.7,711.6,1009.5,711.6,1007.2z"/>
<path fill="#FFEEE9" d="M634.4,1050.6c-1.1,0.1-1.8,0.9-2.5,1.5c-11.1,9.2-21.9,18.6-32.2,28.6c-0.6,0.6-1.1,1.1-1.7,1.7
	c-1,1.2-1.1,1.6,0.1,2.8c3.4,3.4,6.8,6.8,10.2,10.1c3.3,3.3,2.7,3,5.8-0.2c9-9.5,17.6-19.4,25.9-29.5c1.4-1.7,3.7-3.2,3.8-5.3
	c0.1-2.2-2.7-3.2-4.2-4.9c-1.2-1.4-2.7-2.7-4.1-4.1C635.3,1050.9,634.8,1050.8,634.4,1050.6z"/>
<path fill="#E8384A" d="M690.3,977.1c0,0,0-0.1,0-0.1c1.3,0,2.6,0,3.8,0c5.5-0.1,5.8,0.1,5.6,5.5c-0.1,3-0.4,6.1-0.5,9.1
	c-0.1,2.7,0.2,2.9,3.1,2.9c3-0.1,6.1-0.2,9.1-0.3c5.5-0.2,5.8,0.1,5.6,5.4c-0.1,3.4-0.4,6.7-0.5,10.1c-0.1,1.5,0.5,2,2,2
	c3.5-0.1,7-0.2,10.6-0.4c5-0.2,5.4,0.2,5.3,5.4c-0.1,3.2-0.4,6.4-0.5,9.6c-0.1,2.2,0.3,2.7,2.4,2.6c3.5-0.1,7-0.5,10.5-0.4
	c2.9,0,4.8-1.5,6.3-3.7c0.2-0.2,0.2-0.6,0.2-0.9c-0.1-0.7-0.7-0.6-1.1-0.6c-2.9,0.2-5.7,0.4-8.6,0.5c-3.9,0.1-4.5-0.5-4.5-4.3
	c0-0.6,0.1-1.3,0.1-1.9c0.1-3,0.2-6.1,0.3-9.1c0-2.2-0.4-2.6-2.5-2.5c-3.4,0.2-6.7,0.5-10.1,0.6c-5,0.2-5.4-0.3-5.2-5.4
	c0.2-3.5,0.3-7,0.4-10.6c0-1.2-0.6-1.8-1.8-1.8c-1.3,0-2.6,0.2-3.8,0.2c-3.2,0.1-6.4,0.3-9.6,0.3c-1.6,0-2.4-0.8-2.6-2.3
	c-0.1-0.9-0.1-1.9,0-2.9c0.1-2.6,0.3-5.1,0.4-7.7c0.2-5.2,0.3-5-4.9-4.7c-3.2,0.2-6.4,0.3-9.6,0.3c-2.4,0-3.3-0.8-3.3-3
	c0-1.3,0.1-2.6,0.2-3.8c0.1-3,0.2-6.1,0.3-9.1c0-0.9-0.6-1.5-1.5-1.5c-1.1-0.1-2.2,0-3.4,0c-3.2,0.1-6.4,0.3-9.6,0.3
	c-2.6,0-3.4-0.8-3.4-3.5c0-2.4,0.4-4.8,0.4-7.2c0-1.1,0.9-2.9-0.7-3.3c-1.3-0.4-2,1.3-3,2.1c-0.6,0.5-1.1,1.2-1.1,2.1
	c-0.3,4.5-0.5,8.9-0.7,13.4c0,1.1,0.7,1.7,1.9,1.6c1.1,0,2.2-0.2,3.3-0.2c3.2-0.1,6.4-0.3,9.6-0.3c2.1,0,2.9,0.8,3,2.9
	c0.1,1.6-0.1,3.2-0.2,4.8c-0.1,2.7-0.3,5.4-0.4,8.1c0,1.2,0.5,1.8,1.7,1.8C685.9,977.3,688.1,977.2,690.3,977.1z"/>
<path fill="#249A4B" d="M701.7,1050.2c2.5-0.2,3.9-0.3,5.3-0.5c1.3-0.2,1.6-1.1,0.8-2c-1-1.1-2-2.1-3-3.1
	c-19-18.8-38-37.6-56.9-56.3c-0.7-0.7-1.4-1.3-2.1-2c-0.6-0.5-1.4-0.3-1.5,0.4c-0.2,1.4-0.3,2.9-0.5,4.3c-0.5,2.8,0.5,4.8,2.5,6.8
	c16.9,16.6,33.7,33.2,50.4,49.9C698.6,1049.5,700.3,1050.5,701.7,1050.2z"/>
<path fill="#249A4B" d="M774.2,978.9c0.7-2.9-0.3-5-2.4-6.8c-0.4-0.3-0.7-0.7-1-1c-13.8-13.7-27.7-27.4-41.5-41.1
	c-3.1-3-6.1-6.1-9.2-9.1c-0.7-0.7-1.3-1.4-2.4-1.5c-2.6-0.1-5.1-0.2-7.6,0.6c-0.7,0.2-0.9,1-0.4,1.5c0.6,0.7,1.3,1.4,2,2.1
	c4.5,4.5,9.1,9,13.6,13.5c14.7,14.6,29.5,29.2,44.3,43.8c1.1,1.1,2.2,3.2,3.6,2.8C775.1,982.9,773.7,980.4,774.2,978.9z"/>
<path fill="#E8384A" d="M575.5,1124.3c2.5,0,4.7-0.9,6.8-2c6.9-3.5,12.7-8.5,18.3-13.7c0.9-0.9,0.9-1.5,0-2.4
	c-3.8-3.8-7.7-7.6-11.5-11.4c-1.3-1.3-1.8-1.2-3.1,0.2c-4.2,4.6-8.1,9.4-11.3,14.7c-1.1,1.8-2,3.6-2.8,5.5c-0.5,1.3-0.9,2.8-1,4.2
	C570.6,1122.3,572.5,1124.2,575.5,1124.3z"/>
<path fill="#F7AB00" d="M773.1,964.4c-0.1-0.7-0.2-1.5-0.4-2.3c-5-19.6-23.5-37.4-43.2-41.6c-0.5-0.1-0.9-0.1-1.4-0.1
	c-0.1,0-0.4,0.1-0.4,0.2c0,0.3-0.1,0.7,0,0.8c0.6,0.7,1.2,1.5,1.9,2.1c12.5,12.4,25,24.8,37.5,37.1c1.5,1.5,3,2.9,4.6,4.3
	c0.2,0.2,0.6,0.3,0.9,0.2C772.8,965.1,772.9,964.7,773.1,964.4z"/>
<path fill="#F7AB00" d="M645.6,1004.7c-0.1,0.3-0.4,0.6-0.4,0.8c0.1,0.9,0.3,1.9,0.5,2.8c5,16.3,15.5,28,30.3,36.1
	c3.7,2,7.6,3.3,11.6,4.3c0.6,0.2,1.3,0.1,1.9,0.1c0.4,0,0.6-0.3,0.3-0.7c-0.6-0.8-1.2-1.5-1.8-2.2c-11.4-11.4-22.9-22.8-34.4-34.1
	c-2.4-2.4-4.8-4.7-7.2-7C646.3,1004.7,645.9,1004.7,645.6,1004.7z"/>
<path fill="#E8384A" d="M660.1,1039.8c-0.2-0.3-0.2-0.7-0.4-0.9c-1.5-1.4-2.9-2.9-4.4-4.3c-0.3-0.2-1-0.3-1.3-0.1
	c-0.8,0.4-1.6,1-2.3,1.6c-8.8,7.3-8.5,4.1-0.3,12.4c0.9,0.9,1.6,0.8,2.4-0.1c2-2.5,3.9-5,5.8-7.5
	C659.8,1040.7,659.9,1040.2,660.1,1039.8z"/>
<path fill="#249A4B" d="M592.8,1087.8c-0.3,0.3-0.7,0.6-1,0.9c-0.5,0.6-0.4,1.2,0.1,1.7c4.2,4.2,8.4,8.3,12.6,12.5
	c0.7,0.7,1.4,0.6,2.1-0.1c0.6-0.6,0.9-1.4,0.2-2.1c-0.6-0.7-1.3-1.4-2-2.1c-3.4-3.4-6.8-6.7-10.2-10.1
	C594.1,1088.1,593.5,1087.8,592.8,1087.8z"/>
<path fill="#249A4B" d="M640.4,1045.5c-0.4,0.3-0.9,0.5-1.2,0.8c-0.4,0.4-0.4,1-0.1,1.3c2.4,2.7,4.9,5.4,7.8,7.7
	c0.6,0.4,1.2,0.3,1.6-0.4c0.2-0.4,0.3-0.8,0.4-1.3c0-0.3-0.2-0.6-0.5-0.8c-2.3-2.2-4.5-4.5-6.8-6.7
	C641.3,1045.8,640.8,1045.7,640.4,1045.5z"/>
<path fill="#2D3130" d="M794.7,1024.6c0.1-17,6-31.2,17.9-42.9c8.5-8.3,18.4-14.3,30.1-17.1c12.7-3,25.1-1.8,37.1,3.2
	c14.9,6.1,26.7,16.2,36.1,29.1c8.3,11.4,13.9,24.1,15.8,38.2c2.4,17.9-1.7,34-13.5,47.9c-0.8,1-1.7,1.9-2.6,2.9
	c-0.6,0.7-0.7,1.4-0.1,2.1c1.4,1.5,2.9,3,4.3,4.5c14.8,15.3,29.1,31,42.4,47.7c6.6,8.3,12.9,16.7,18.2,25.9
	c1.9,3.3,3.7,6.7,5.1,10.3c1,2.7,1.8,5.5,2,8.4c0.5,7.4-5.2,12.1-12.4,10.3c-2-0.5-3.9-1.4-5.7-2.5c-2.9-1.8-5.5-3.9-7.9-6.2
	c-3.5-3.3-6.8-6.8-9.9-10.5c-5.6-6.6-10.7-13.5-15.7-20.6c-11.9-16.9-22.6-34.5-33-52.3c-0.9-1.5-1.3-3.6-2.9-4.3
	c-1.7-0.7-3.2,1-4.8,1.7c-15.7,7.1-31.6,7.1-47.5,0.8c-13.1-5.1-23.8-13.6-32.8-24.3c-9.9-11.9-16.6-25.3-19.4-40.7
	C795,1032.3,794.9,1028.3,794.7,1024.6z"/>
<path fill="#FFEEE9" d="M903.4,992.8c0.5-2.1-0.3-3.6-1.9-5c-5.6-5.1-11.5-9.6-18.3-13c-5.1-2.6-4.3-2.6-8.8,0.8
	c-17.1,12.9-34.2,25.8-51.2,38.7c-7,5.3-14,10.6-21,15.9c-1.6,1.2-2.2,2.3-1.8,4.4c1.4,8.1,4.1,15.7,7.8,23.1c1.1,2.2,2.4,3.6,5,3.8
	c2.2,0.2,4.4,0.6,6.6,1.2c5.3,1.4,4.9,0.5,5.3-4.1c0.3-3.3,0.6-6.7,1-10c0.2-1.8,1.2-2.5,2.9-2.4c0.9,0.1,1.9,0.3,2.8,0.5
	c3.3,0.6,6.6,1.2,9.9,1.8c2,0.3,2.3,0.1,2.5-1.8c0.4-4.1,0.7-8.3,1.2-12.4c0.2-2.1,1.2-2.9,3.2-2.7c1.4,0.1,2.8,0.4,4.3,0.7
	c3,0.5,6,1,9,1.5c0.9,0.1,1.6-0.3,1.7-1.2c0.3-2.9,0.6-5.7,0.9-8.6c0.2-1.7,0.3-3.5,0.7-5.2c0.3-1.4,1.4-2.2,2.8-2
	c1.9,0.3,3.8,0.6,5.7,1c2.5,0.5,5,1,7.5,1.4c1.2,0.2,1.8-0.3,2-1.5c0.2-1.4,0.3-2.9,0.5-4.3c0.3-2.9,0.5-5.7,0.9-8.6
	c0.3-2.3,1.3-3,3.6-2.7c0.6,0.1,1.2,0.3,1.9,0.4c3.3,0.6,6.6,1.2,9.9,1.8c2.2,0.4,2.7,0.1,2.9-1.9
	C902.9,999.2,903.1,996,903.4,992.8z"/>
<path fill="#FFEEE9" d="M927,1036.1c0-0.3-0.1-0.6-0.1-1c-1.2-9-4.2-17.4-8.5-25.3c-0.1-0.1-0.2-0.3-0.3-0.4
	c-0.2-0.2-0.5-0.5-0.8-0.5c-0.2,0-0.6,0.4-0.6,0.6c-0.2,1.1-0.4,2.2-0.5,3.3c-0.2,1.9-0.2,3.8-0.5,5.7c-0.3,2.1-1.2,2.8-3.2,2.6
	c-1.6-0.1-3.2-0.5-4.7-0.7c-2.7-0.5-5.3-1-8-1.4c-1.5-0.2-2,0.2-2.2,1.8c-0.2,1.4-0.4,2.9-0.5,4.3c-0.3,2.7-0.4,5.4-0.8,8.1
	c-0.4,2.6-1.3,3.2-3.9,2.8c-3.9-0.7-7.8-1.5-11.8-2.3c-1.7-0.3-2.4,0.1-2.5,1.9c-0.4,4-0.7,8-1.1,11.9c-0.3,2.7-1.1,3.4-3.7,3.1
	c-0.9-0.1-1.9-0.4-2.8-0.5c-3-0.5-6-1.1-9-1.6c-2.4-0.4-2.6-0.2-2.8,1.9c-0.3,2.4-0.5,4.8-0.7,7.2c-0.2,1.8-0.2,3.5-0.4,5.3
	c-0.2,1.7-1.2,2.6-2.9,2.4c-1.6-0.1-3.2-0.4-4.7-0.7c-2.8-0.5-5.7-1-8.5-1.5c-1.1-0.2-1.9,0.3-2,1.5c-0.3,3.2-0.6,6.4-0.9,9.5
	c-0.2,1.4-0.3,2.9-0.6,4.2c-0.3,1.2-1.3,1.8-2.5,1.8c-0.8-0.1-1.6-0.3-2.4-0.4c-2.4-0.4-4.7-0.8-7.1-1.2c-0.3,0-0.8,0-0.9,0.2
	c-0.3,0.4-0.2,0.9,0.2,1.2c6.6,6.7,14.2,11.9,22.8,15.7c1,0.4,1.9,0.3,2.7-0.3c0.8-0.6,1.6-1.1,2.3-1.7
	c23.5-17.7,46.9-35.5,70.4-53.2c1-0.8,2-1.5,3-2.3C926.7,1037.7,927.1,1037,927,1036.1z"/>
<path fill="#FFEEE9" d="M946.3,1159.1c0.2-0.1,0.8-0.4,1.3-0.8c4.1-3.1,8.1-6.1,12.2-9.2c0.4-0.3,0.7-0.6,1.1-1
	c0.5-0.5,0.6-1.1,0.1-1.7c-0.6-0.8-1.1-1.5-1.7-2.3c-8.9-11.3-18.4-22-28.1-32.6c-0.4-0.5-0.9-0.9-1.3-1.4c-0.5-0.5-1.1-0.7-1.7-0.3
	c-3.2,2.4-6.4,4.8-9.5,7.2c-0.5,0.4-0.6,1.1-0.2,1.7c0.3,0.6,0.6,1.1,0.9,1.7c7.6,12.4,15.5,24.6,24,36.3c0.5,0.6,0.9,1.3,1.5,1.9
	C945,1159,945.4,1159.4,946.3,1159.1z"/>
<path fill="#E8384A" d="M912.2,1002.8c0.7-2.3-0.9-4.2-2.6-5.9c-0.2-0.2-0.6-0.4-0.8-0.4c-0.5,0-0.8,0.5-0.8,1
	c-0.3,2.5-0.5,5.1-0.8,7.6c-0.4,4.9-1,5.4-6,4.5c-3.1-0.5-6.3-1.2-9.4-1.8c-2.4-0.4-2.9-0.1-3.2,2.2c-0.2,1.1-0.3,2.2-0.4,3.3
	c-0.3,2.7-0.4,5.4-0.8,8.1c-0.4,3.2-1.3,3.7-4.5,3.1c-3.8-0.7-7.5-1.5-11.3-2.2c-1.8-0.3-2.3,0.1-2.5,1.9c-0.4,4-0.7,8-1.1,11.9
	c-0.3,2.8-1.1,3.4-3.7,3.1c-1-0.1-1.9-0.3-2.8-0.5c-3-0.5-6-1.1-9-1.6c-2.4-0.4-2.6-0.2-2.9,2.4c-0.4,3.8-0.6,7.6-1.1,11.5
	c-0.2,2.3-1.3,3.2-3.5,2.9c-1.6-0.2-3.2-0.5-4.7-0.8c-2.7-0.5-5.3-1-8-1.4c-1.3-0.2-1.8,0.2-2,1.4c-0.3,2.5-0.6,5.1-0.8,7.6
	c-0.2,1.6-0.2,3.2-0.4,4.8c-0.4,2.9-1.4,3.6-4.2,3.1c-2.4-0.4-4.7-1-7-1.4c-0.9-0.2-1.9-0.1-2.8-0.1c-0.4,0-0.6,0.3-0.4,0.7
	c0.9,2.1,2,4,4.5,4.5c4.1,0.8,8.1,1.6,12.2,2.3c1.2,0.2,1.9-0.3,2-1.5c0.4-4,0.7-8,1.1-11.9c0.4-3.5,1.2-4.1,4.7-3.5
	c0.6,0.1,1.2,0.3,1.9,0.4c3,0.5,6,1.1,9,1.6c2.4,0.4,2.6,0.2,2.8-1.9c0.3-3.2,0.8-6.4,0.9-9.5c0.2-6,1.6-5.8,6.5-5
	c3.1,0.5,6.3,1.2,9.4,1.7c1.9,0.3,2.3,0,2.6-1.8c0.3-1.9,0.5-3.8,0.6-5.7c0.2-2.1,0.2-4.2,0.5-6.2c0.4-2.9,1.4-3.5,4.2-3
	c3.5,0.6,6.9,1.3,10.4,1.9c0.6,0.1,1.3,0.2,1.9,0.3c0.9,0.1,1.6-0.3,1.8-1.2c0.2-0.9,0.3-1.9,0.4-2.8c0.3-3.2,0.7-6.4,0.9-9.5
	c0.2-3.5,1.9-3.8,4.4-3.4c0.6,0.1,1.2,0.3,1.9,0.4c3.3,0.6,6.6,1.2,9.9,1.8c1.5,0.2,2.1-0.2,2.2-1.7
	C911.5,1010.5,911.9,1006.8,912.2,1002.8z"/>
<path fill="#249A4B" d="M799.7,1021.3c0.3,1.1-0.7,2.7,0.8,3.4c1.1,0.5,1.9-0.8,2.8-1.4c0.4-0.3,0.8-0.6,1.2-0.8
	c21.4-16.2,42.8-32.3,64.2-48.5c1-0.8,2-1.6,3-2.4c0.6-0.5,0.5-1.2-0.3-1.4c-1.2-0.4-2.5-0.6-3.7-1c-3-1.1-5.4-0.3-7.9,1.7
	c-7.8,6.1-15.7,12-23.6,17.9c-10.8,8.2-21.7,16.3-32.4,24.6c-3.7,2.8-3.6,1.8-3.9,7.5C799.7,1021,799.7,1021.1,799.7,1021.3z"/>
<path fill="#249A4B" d="M927.6,1047.7c-0.1-1,0.5-2.5-0.4-3.1c-1.4-0.8-2.2,0.8-3.2,1.4c-0.6,0.3-1,0.7-1.6,1.1
	c-20.8,15.7-41.6,31.4-62.4,47.2c-1.5,1.1-3.4,1.8-4.2,3.8c1.5,1.7,3.6,1.5,5.5,2c2.2,0.6,4,0.1,5.8-1.3c4-3.2,8.1-6.2,12.2-9.3
	c14.8-11.2,29.6-22.4,44.4-33.5c2.4-1.8,3.7-3.9,3.7-6.8C927.5,1048.7,927.5,1048.2,927.6,1047.7z"/>
<path fill="#E8384A" d="M982.8,1185.2c-0.1-2.3-0.6-4.4-1.4-6.5c-2.6-6.9-6.5-13.1-10.7-19.2c-0.8-1.1-1.3-1.2-2.4-0.4
	c-4.5,3.3-8.9,6.7-13.4,10.1c-1,0.8-1.1,1.4-0.2,2.4c4.5,5.4,9.2,10.6,14.8,14.9c2,1.6,4.1,3,6.7,3.7
	C980.2,1191.3,982.7,1189.4,982.8,1185.2z"/>
<path fill="#F7AB00" d="M851,968.2c-0.9,0.1-2.5,0.3-4,0.6c-15.3,3-27.3,11.1-36.8,23.3c-3,3.8-5.2,8-7,12.5
	c-0.2,0.6-0.3,1.2-0.5,1.8c0,0.1,0,0.4,0.1,0.4c0.3,0.1,0.6,0.3,0.8,0.2c0.6-0.3,1.1-0.7,1.6-1.1c15.3-11.6,30.6-23.1,45.9-34.7
	c0.8-0.6,1.5-1.2,2.2-1.9c0.2-0.2,0.3-0.6,0.2-0.8c-0.1-0.2-0.5-0.3-0.8-0.4C852.3,968.1,852,968.2,851,968.2z"/>
<path fill="#F7AB00" d="M875.6,1100.8c0.4,0,0.9-0.1,1.4-0.1c20-3.2,34.8-13.8,44.7-31.2c1-1.8,1.7-3.8,2.5-5.7
	c0.2-0.4,0.4-1-0.2-1.2c-0.4-0.1-0.9,0.2-1.3,0.4c-0.6,0.3-1,0.7-1.6,1.1c-15.1,11.4-30.1,22.7-45.2,34.1c-0.6,0.5-1.2,1-1.8,1.6
	c-0.2,0.2-0.1,0.6-0.1,0.8c0,0.1,0.3,0.2,0.4,0.2C874.9,1100.8,875.2,1100.8,875.6,1100.8z"/>
<path fill="#E8384A" d="M911.2,1106c0.5-0.2,1-0.3,1.4-0.6c1.3-0.9,2.6-1.9,3.8-2.9c4.1-3.1,3.8-2.7,0.4-6.3
	c-0.4-0.5-0.9-0.9-1.3-1.4c-5.5-5.7-3.6-4.8-9.7-0.5c-0.1,0.1-0.2,0.2-0.3,0.3c-0.5,0.5-0.7,1.1-0.3,1.7c1.7,2.9,3.3,5.8,5.1,8.7
	C910.4,1105.5,910.8,1105.7,911.2,1106z"/>
<path fill="#249A4B" d="M950.6,1165.8c0.7,0.1,1.2-0.4,1.7-0.8c4.2-3.1,8.3-6.3,12.5-9.5c0.4-0.3,0.8-0.6,1.1-0.9
	c0.7-0.7,0.3-1.5-0.2-2.1c-0.4-0.5-1-0.9-1.6-0.5c-4.9,3.7-9.9,7.5-14.8,11.2c-0.5,0.4-0.2,0.9,0,1.3
	C949.5,1165.2,949.9,1165.7,950.6,1165.8z"/>
<path fill="#249A4B" d="M924.9,1105.3c-0.3-0.4-0.5-0.9-0.8-1.1c-0.3-0.2-1-0.4-1.3-0.2c-2.8,2-5.6,4.1-8.3,6.3
	c-0.7,0.6-0.5,1.4,0,2.1c0.5,0.6,1.1,0.6,1.7,0.2c2.7-2,5.3-4,8-6C924.5,1106.3,924.6,1105.8,924.9,1105.3z"/>
<path fill="#2D3130" d="M1550.9,1109.3c-1.2-0.1-2.2-0.1-3.1-0.2c-2.2-0.4-3.8-1.4-4.7-3.5c-2.6-6.2-5.3-12.4-8-18.5
	c-1-2.3-0.6-4.4,0.9-6.3c1.4-1.9,3.2-3.5,5.1-5c4-3.2,8.3-6,12.6-8.7c9.8-6.1,19.9-11.6,30.1-16.9c5.7-3,5-1.6,4.6-7.9
	c-0.8-12.3-1.8-24.6-2.6-36.8c-1.3-19.8-3-39.5-2.5-59.4c0.2-5.6,0.7-11.2,2-16.6c2.2-9.3,7.3-16.2,15.8-20.6
	c3.3-1.7,6.6-3.2,10.1-4.4c8.8-2.9,17.3-2.1,25.4,2.5c4.6,2.6,8.8,5.8,12.8,9.2c6.5,5.5,12.5,11.4,18.3,17.6
	c16.3,17.4,32.5,34.9,48.7,52.3c5.1,5.5,3.1,4.9,10,2.5c12.9-4.4,25.7-8.7,39-11.7c3.9-0.9,7.8-1.6,11.8-1.8c1.3-0.1,2.6,0,3.8,0.1
	c2.5,0.1,4.2,1.3,5.2,3.6c2.6,6,5.2,12,7.8,18c1.1,2.6,0.7,5-1.2,7.1c-1.5,1.6-3.1,3.2-4.9,4.6c-4.8,4-10.1,7.3-15.5,10.5
	c-16.9,10.1-34.4,19.1-52.1,27.6c-38.3,18.4-77.4,35-117.6,49.1c-12.5,4.4-25.1,8.5-38,11.6
	C1560.1,1108.1,1555.4,1108.9,1550.9,1109.3z"/>
<path fill="#D3B18F" d="M1621.1,907.4c-0.5,0-1.3,0.1-2.1,0.2c-5.7,0.5-10.8,2.8-15.8,5.4c-7.1,3.7-11.5,9.5-13.3,17.3
	c-1.3,5.5-1.9,11-2,16.6c-0.5,18.6,1.2,37,2.3,55.5c0.8,12.3,1.8,24.5,2.6,36.8c0.4,6,0.5,5.8,5.6,3.3
	c36.6-17.9,73.9-34.2,112.1-48.4c1-0.4,2.1-0.8,3.1-1.2c1.2-0.5,1.3-1.2,0.5-2.2c-0.4-0.5-0.8-1-1.3-1.4
	c-16.4-17.7-32.8-35.4-49.4-53c-6.4-6.7-13-13.2-20.3-19c-3.4-2.7-6.9-5.2-10.8-7.1C1629,908.4,1625.3,907.4,1621.1,907.4z"/>
<path fill="#AD794B" d="M1551.1,1104.5c2.3-0.4,5.2-0.7,8-1.3c12.6-2.5,24.7-6.4,36.8-10.5c37.1-12.7,73.1-27.8,108.7-44.3
	c20.6-9.5,40.9-19.6,60.6-31c5.8-3.4,11.5-6.9,17-10.8c2.1-1.5,4.1-3,5.8-5c0.3-0.3,0.6-0.7,0.5-1.2c-0.2-0.6-0.7-0.6-1.1-0.6
	c-4-0.2-7.9,0.7-11.8,1.6c-12,2.7-23.7,6.4-35.3,10.5c-47.9,16.7-94.3,36.8-139.6,59.5c-12.1,6.1-24.1,12.6-35.6,19.8
	c-4.3,2.7-8.6,5.5-12.6,8.8c-1.1,0.9-2.1,2-3,3c-0.4,0.5-0.1,0.9,0.4,1.1C1549.9,1104.3,1550.3,1104.3,1551.1,1104.5z"/>
<path fill="#E8384A" d="M1787.1,993.3c-0.1-0.3-0.2-0.8-0.4-1.2c-1.5-3.4-3-6.7-4.4-10.1c-0.7-1.7-1.8-2.5-3.6-2.4
	c-4,0.1-7.9,0.8-11.8,1.7c-14,3.2-27.7,7.7-41.3,12.5c-45.5,16.2-89.8,35.4-133,57.1c-12.4,6.2-24.7,12.8-36.5,20.2
	c-4.1,2.5-8.1,5.2-11.8,8.2c-1.4,1.1-2.6,2.3-3.9,3.6c-0.9,0.8-1.1,1.9-0.6,3.1c1.7,3.9,3.4,7.9,5.2,11.9c0.4,0.8,1.2,0.9,2,0.3
	c3.7-3.3,7.8-6.2,11.9-8.9c9.7-6.3,19.7-11.9,29.9-17.2c31.9-16.7,64.6-31.5,98-45.1c22.8-9.3,45.8-18.1,69.3-25.3
	c9.5-2.9,19-5.7,28.9-6.7c0.5,0,0.9-0.2,1.4-0.3C1786.9,994.4,1787.2,994.1,1787.1,993.3z"/>
<path fill="#2D3130" d="M1410.7,663.6c0-52.6,0-105.2,0-157.9c0-2.7,0.1-5.4,0.5-8.1c2-14.6,15-27.4,31.6-27.4
	c21.3,0,42.5,0.1,63.8,0c11.3-0.1,24.9,6.6,30.3,21.2c2.7,7.2,5.1,14.5,7.6,21.7c34.2,98.8,68.3,197.6,102.5,296.3
	c0.7,2,1.4,3.9,2,5.9c4.9,17.2-5.7,36.7-25.4,40.5c-2.5,0.5-5.1,0.4-7.7,0.4c-37.3,0-74.5,0-111.8,0c-20.3,0-40.6,0-60.9,0
	c-9.3,0-17.1-3.4-23.5-10.1c-5.8-6-8.5-13.4-8.9-21.7c-0.1-1.6,0-3.2,0-4.8C1410.7,767.5,1410.7,715.5,1410.7,663.6z"/>
<path fill="#AEDEF8" d="M1415.6,663.1c0,52.1,0,104.3,0,156.4c0,2.6,0,5.1,0.4,7.7c1.4,10.6,7.3,17.9,16.9,22.1
	c3.6,1.6,7.3,2,11.2,2c30.7,0,61.4,0,92.1,0c27.2,0,54.4-0.1,81.6,0c15.7,0.1,29.4-14.3,27.2-30.9c-0.4-3.2-1.5-6.2-2.5-9.2
	c-33.2-95.9-66.3-191.8-99.5-287.7c-3.4-10-6.9-19.9-10.4-29.9c-2.4-6.8-6.8-11.9-13.1-15.3c-4.5-2.4-9.2-3.4-14.3-3.4
	c-18.4,0.1-36.8,0-55.2,0c-2.4,0-4.8-0.1-7.2,0c-17,0.7-26.1,13.9-26.9,24.6c-0.2,2.4-0.3,4.8-0.3,7.2
	C1415.6,558.8,1415.6,611,1415.6,663.1z"/>
<path fill="#249A4B" d="M645.6,1199.6c-0.1,1-0.5,1.8-1.6,2c-1.1,0.2-2.2,0.3-3.3,0.4c-3.5,0.3-7,0.7-10.4,1.7
	c-8.7,2.8-14.5,8.4-17.5,17c-1.2,3.5-2,7.1-1.9,10.8c0,0.8-0.1,1.6,0,2.4c0.1,1.5-1.1,2.9-2.6,2.9c-1.3,0-2.3-1.2-2.4-3.1
	c-0.1-0.8,0-1.6,0-2.4c-0.1-4-0.9-7.9-2.3-11.7c-4-10.2-11.9-15.5-22.5-17.1c-2.5-0.4-5.1-0.4-7.6-0.7c-1.5-0.2-2.5-1.2-2.5-2.4
	c0.1-1.2,1.1-2.4,2.5-2.5c3.2-0.2,6.4-0.3,9.5-1c12-2.5,19.8-10.3,22.1-22.3c0.5-2.4,0.9-4.7,0.7-7.1c0-0.9,0.1-1.9,0.3-2.8
	c0.3-1,1.2-1.5,2.2-1.5c1,0,2,0.5,2.2,1.5c0.3,1.2,0.3,2.5,0.3,3.8c0.1,4,0.9,7.9,2.3,11.7c3,7.8,8.5,13.1,16.4,15.7
	c3.5,1.2,7.1,1.9,10.8,2c1.1,0,2.2,0.1,3.3,0.3C644.9,1197.3,645.6,1198.4,645.6,1199.6z"/>
<path fill="#249A4B" d="M625.7,1199.6c0.2-0.3,0.1-0.5-0.3-0.7c-0.6-0.3-1.1-0.6-1.7-0.9c-6.1-2.9-10.7-7.5-13.8-13.5
	c-0.3-0.6-0.6-1.1-0.9-1.7c-0.6-1-0.9-1-1.6,0.2c-0.3,0.6-0.6,1.1-0.9,1.7c-3.1,5.8-7.5,10.3-13.5,13.2c-0.6,0.3-1.2,0.6-1.7,0.9
	c-0.7,0.4-0.7,1,0,1.4c0.5,0.3,1.1,0.6,1.7,0.9c6,3.1,10.6,7.6,13.7,13.6c0.1,0.3,0.2,0.6,0.4,0.9c0.4,0.5,0.8,0.9,1.2,1.3
	c0.3-0.4,0.6-0.7,0.9-1.1c0.3-0.4,0.4-0.9,0.7-1.3c3-5.9,7.5-10.3,13.4-13.3c0.7-0.4,1.4-0.8,2.1-1.2
	C625.6,1199.9,625.7,1199.7,625.7,1199.6z"/>
<path fill="#F7AB00" d="M1033.4,1124.4c-0.5-0.3-1-0.4-1.2-0.8c-0.9-1.1-1.8-2.3-2.6-3.4c-3.5-4.7-7.1-9.4-10.5-14.2
	c-2.2-3.1-2.7-2.6,0.6-5.1c5.6-4.2,11.3-8.4,16.9-12.6c3.7-2.8,7.4-5.5,11.1-8.3c1.6-1.1,2-1.1,3.1,0.4c3.1,4.1,6.1,8.2,9.2,12.3
	c1.6,2.2,3.2,4.4,4.8,6.5c0.6,0.8,0.5,1.5-0.2,2.1c-0.3,0.3-0.7,0.6-1.1,0.9c-9.3,6.9-18.7,13.9-28,20.8
	C1034.8,1123.5,1034.1,1124,1033.4,1124.4z"/>
<path fill="#F7AB00" d="M1034.4,1117.3c0.7-0.4,1.4-0.8,2-1.2c4.6-3.4,9.2-6.9,13.9-10.3c2.3-1.7,4.6-3.4,6.9-5.2
	c0.9-0.7,1.1-1.5,0.4-2.4c-2.6-3.5-5.1-7-7.7-10.4c-1.3-1.7-1.6-1.7-3.5-0.3c-6.7,4.9-13.3,9.9-20,14.9c-0.4,0.3-0.8,0.6-1.1,0.9
	c-0.7,0.6-0.9,1.3-0.4,2.1c2.7,3.7,5.5,7.5,8.3,11.2C1033.4,1116.8,1033.9,1116.9,1034.4,1117.3z"/>
<path fill="#F7AB00" d="M1513.8,928.5c0.3,0.3,0.8,0.5,1,0.9c0.5,0.7,0.8,1.4,1.2,2.1c5.2,9.7,10.4,19.5,15.6,29.2
	c0.3,0.6,0.6,1.1,0.9,1.7c0.5,1,0.6,1.8-0.6,2.4c-0.4,0.2-0.8,0.5-1.2,0.7c-6.2,3.3-12.4,6.6-18.6,9.9c-0.4,0.2-0.9,0.4-1.3,0.6
	c-0.9,0.4-1.6,0.2-2.1-0.6c-0.4-0.7-0.8-1.4-1.2-2.1c-5.2-9.7-10.4-19.5-15.6-29.2c-0.4-0.7-0.7-1.4-1.1-2.1
	c-0.3-0.7-0.3-1.2,0.4-1.6c0.1-0.1,0.3-0.2,0.4-0.3c7-3.8,14.1-7.5,21.1-11.3C1513.1,928.7,1513.4,928.7,1513.8,928.5z"/>
<path fill="#F7AB00" d="M1511.5,935.5c-0.4,0.1-0.8,0.2-1.1,0.3c-3.9,2.1-7.9,4.2-11.8,6.3c-1.1,0.6-1.2,1.4-0.7,2.4
	c1.8,3.4,3.6,6.8,5.4,10.1c2.3,4.4,4.6,8.7,7,13.1c1,1.9,1.4,1.9,3.4,0.9c3.5-1.8,7.1-3.7,10.6-5.6c1.9-1,2-1.5,1-3.4
	c-4-7.5-8-14.9-11.9-22.4c-0.2-0.4-0.4-0.9-0.8-1.2C1512.2,935.8,1511.8,935.7,1511.5,935.5z"/>
<path fill="#E8384A" d="M1870.6,1130c0.1,1.2-0.7,2.3-1.8,2.5c-1.7,0.3-3.5,0.4-5.2,0.7c-6.9,1.4-10.6,5.1-11.8,12.1
	c-0.3,1.6-0.3,3.2-0.6,4.7c-0.2,1-0.9,1.7-1.9,1.8c-1.2,0.1-2.4-0.5-2.6-1.6c-0.2-0.9-0.2-1.9-0.3-2.8c-0.1-2.4-0.7-4.7-1.8-6.9
	c-1.8-3.6-4.8-6-8.7-6.9c-2-0.5-4.1-0.6-6.1-0.9c-1.7-0.2-2.5-1-2.6-2.3c-0.1-1.4,0.9-2.4,2.8-2.6c1.6-0.2,3.2-0.3,4.7-0.6
	c6.8-1.5,10.8-5.9,11.6-12.9c0.1-1.3,0.1-2.6,0.3-3.8c0.2-1.1,1.2-1.9,2.4-1.9c1.2,0,2.1,0.7,2.3,2c0.2,1.3,0.2,2.5,0.4,3.8
	c1.2,7.7,5.3,11.9,13.1,13.1c1.3,0.2,2.6,0.2,3.8,0.3C1869.7,1127.9,1870.5,1128.8,1870.6,1130z"/>
<path fill="#E8384A" d="M1848.8,1123.5c-0.1,0.1-0.3,0.1-0.4,0.2c-1.7,2.3-3.7,4.3-6.1,6c-0.6,0.5,0,0.9,0.3,1.1
	c1.9,1.5,3.7,3,5.1,4.9c1.1,1.5,1.3,1.5,2.4,0c1.5-2.1,3.6-3.5,5.4-5.3c-1.2-2.4-4.1-3.3-5.3-5.7c-0.2-0.4-0.6-0.7-1-1
	C1849.2,1123.6,1849,1123.6,1848.8,1123.5z"/>
<path fill="#E8384A" d="M549.5,989.7c0.3,0.1,0.7,0.3,1.1,0.5c8.5,4,17,8.1,25.4,12.1c1.8,0.8,1.9,1.2,1,2.9
	c-2.5,5.3-5.1,10.6-7.6,15.9c-0.9,1.8-1.2,1.9-2.9,1.1c-6.2-2.9-12.4-5.9-18.5-8.8c-2.4-1.2-4.9-2.4-7.3-3.5c-0.8-0.4-1.4-1-1-1.9
	c2.8-5.9,5.6-11.8,8.4-17.7C548.4,989.9,548.8,989.6,549.5,989.7z"/>
<path fill="#E8384A" d="M551.6,996.3c-0.4,0.3-0.8,0.5-1,0.9c-1.3,2.6-2.5,5.1-3.8,7.7c-0.7,1.4-0.5,2,1,2.7
	c5.6,2.7,11.2,5.3,16.8,8c1,0.5,1.8,0.4,2.3-0.7c1.2-2.4,2.4-4.8,3.5-7.3c0.8-1.7,0.6-2.1-1.1-3c-5.4-2.6-10.9-5.2-16.4-7.8
	C552.5,996.7,552.1,996.5,551.6,996.3z"/>
<path fill="#249A4B" d="M1800.2,1085.9c-0.3,0.3-0.5,0.8-0.9,1.1c-2.5,1.9-5.1,3.8-7.6,5.7c-5.1,3.8-10.2,7.6-15.4,11.4
	c-1.4,1-2,1-2.8-0.1c-3.7-5-7.4-10-11.1-15c-0.7-1-0.5-1.7,0.4-2.4c3.2-2.4,6.4-4.8,9.6-7.2c4.6-3.4,9.2-6.8,13.8-10.2
	c0.7-0.5,1.5-0.7,2.1,0.1c3.9,5.2,7.8,10.5,11.7,15.7C1800.1,1085.1,1800.1,1085.5,1800.2,1085.9z"/>
<path fill="#249A4B" d="M1793.2,1085.2c-0.2-0.7-0.2-1-0.4-1.3c-1.8-2.5-3.6-4.9-5.4-7.3c-0.7-1-1.6-0.9-2.5-0.2
	c-2.9,2.2-6,4.3-8.8,6.6c-2.4,2-5.5,3.2-7.2,6c1.8,2.6,3.7,5.2,5.5,7.8c0.1,0.1,0.2,0.2,0.3,0.4c0.6,0.8,1.3,0.7,2.1,0.2
	c0.9-0.7,1.8-1.3,2.7-2c4.1-3,8.2-6.1,12.3-9.1C1792.4,1085.8,1792.9,1085.4,1793.2,1085.2z"/>
<path fill="#E8384A" d="M1025.5,1030.7c2.9-0.1,5.2,2.1,5.3,4.9c0.1,2.8-2.2,5.2-5,5.3c-2.8,0.1-5.2-2.1-5.2-5
	C1020.5,1033,1022.6,1030.8,1025.5,1030.7z"/>
<path fill="#249A4B" d="M705.8,1106.5c0,2.9-2.2,5.1-5.1,5c-2.9,0-5.2-2.3-5.2-5.1c0-2.8,2.4-5.1,5.2-5.1
	C703.6,1101.4,705.8,1103.6,705.8,1106.5z"/>
<path fill="#F7AB00" d="M592.8,926.7c0,2.9-2.1,5.1-5.1,5.1c-2.9,0-5.1-2.2-5.1-5.1c0-2.9,2.3-5.2,5.1-5.2
	C590.6,921.6,592.8,923.8,592.8,926.7z"/>
<path fill="#2D3130" d="M1948,850.7c-43.4,0-86.7,0-130.1,0c-3.5,0-7,0-10.5-1c-10.8-2.9-18.2-9.7-22.3-20
	c-2.4-6.1-4.6-12.3-6.8-18.4c-36.7-99.6-73.4-199.2-110.1-298.8c-0.8-2.2-1.7-4.5-2.2-6.8c-4.7-20.1,9.8-39,30.6-40
	c1.1-0.1,2.2,0,3.4,0c84,0,168,0,252,0c3.7,0,7.4,0.2,10.9,1.2c10.2,2.9,17.4,9.3,21.5,19.1c2.9,6.9,5.5,14,8.3,21
	c39,99.2,78,198.5,117.1,297.7c2.7,6.9,3.8,13.9,2.1,21.1c-3.2,13.7-15.1,24.5-30.3,25c-1.6,0.1-3.2,0-4.8,0
	C2033.8,850.7,1990.9,850.7,1948,850.7z"/>
<path fill="#AEDEF8" d="M1947.9,845.8c34.2,0,68.5,0,102.7,0c9.6,0,19.2,0,28.8,0c2.6,0,5.1-0.1,7.6-0.7
	c15.6-4.1,24.4-20.5,19.2-35.7c-0.6-1.8-1.4-3.6-2.1-5.4c-36.3-92.4-72.7-184.8-109-277.1c-5-12.6-10-25.3-14.9-37.9
	c-2.3-6-6.1-10.9-11.6-14.2c-1.2-0.7-2.5-2.2-3.8-1.2c-0.9,0.7-0.3,2.4-0.1,3.7c1.4,15.1,2.9,30.2,4.3,45.4c0.2,2.2,0.3,4.5,0.4,6.7
	c0,0.8-0.4,1.2-1.2,1c-1.1-0.3-2.1-0.8-3.1-1.2c-14.4-5.8-28.8-11.6-43.1-17.4c-1.5-0.6-3-1.1-4.5-1.7c-0.5-0.2-0.9,0.1-1.1,0.6
	c-0.3,1.1-0.7,2.1-0.9,3.2c-3,13.3-5.9,26.5-8.9,39.8c-0.8,3.4-1.6,6.8-2.5,10.3c-0.2,0.8-0.7,1.1-1.4,0.6c-1.6-1.3-3.3-2.6-4.8-3.9
	c-11.3-9.5-22.5-18.9-33.8-28.4c-1.1-0.9-2.2-1.8-3.4-2.7c-0.5-0.4-1-0.2-1.2,0.2c-0.7,1-1.4,2.1-2.1,3.2c-8,13.5-16,26.9-24,40.4
	c-0.7,1.1-1.3,2.2-2,3.3c-0.4,0.6-1,0.9-1.5,0.1c-0.7-1-1.4-2.1-2.1-3.2c-8.1-13-16.3-26-24.4-39c-0.5-0.8-1-1.6-1.5-2.4
	c-1.7-2.6-1.7-2.6-3.9-0.7c-1,0.8-1.9,1.7-2.9,2.5c-11.3,9.9-22.6,19.9-33.9,29.8c-1,0.8-1.9,1.7-2.9,2.5c-0.6,0.5-1.2,0.3-1.5-0.4
	c-0.3-0.9-0.6-1.8-0.8-2.8c-3.8-15.2-7.6-30.4-11.4-45.6c-0.3-1.4-0.7-2.8-1.1-4.2c-0.3-1-1-1.2-1.9-0.8c-1.3,0.5-2.7,1.1-4,1.6
	c-14.1,6-28.2,12.1-42.3,18.2c-5,2.2-4.9,2.1-4.6-3.2c0.7-11,1.5-22,2.3-33c0.4-6.2,0.9-12.4,1.4-18.7c0.1-1.1,0.3-2.2,0.6-3.3
	c0.3-0.9,1.7-1.6,1.2-2.4c-0.8-1.2-2.3-0.4-3.5-0.4c-0.5,0-1,0.1-1.4,0.2c-13.9,3.1-23.3,17-21,31.1c0.5,3,1.6,5.9,2.6,8.7
	c36.1,98,72.2,195.9,108.2,293.8c2.8,7.6,5.6,15.3,8.5,22.9c3.4,9,9.9,14.7,19.2,17.3c3,0.8,6,0.7,9.1,0.7
	C1861.2,845.8,1904.5,845.8,1947.9,845.8z"/>
<path fill="#AEDEF8" d="M1827.5,470.5c-23.4,0-46.7,0-70.1,0c-17.6,0-35.2,0-52.8,0c-1.4,0-2.9,0.1-4.3,0.2c-0.4,0-0.8,0.6-0.4,1.1
	c0.8,1,1.7,1.9,2.7,2.7c6.3,5.9,13,11.3,20.2,16.1c33.5,22.4,70.6,32.4,110.7,31.6c14.9-0.3,29.6-2.4,44.1-6.2
	c28.5-7.6,53.8-21,75.3-41.3c0.9-0.9,1.8-1.8,2.7-2.7c0.5-0.5,0.2-1.4-0.4-1.4c-1.6-0.1-3.2-0.2-4.8-0.2
	C1909.4,470.5,1868.5,470.5,1827.5,470.5z"/>
<path fill="#E8384A" d="M1826.5,527.6c-2.8-0.2-6.3-0.3-9.8-0.5c-3.5-0.2-7-0.5-10.5-0.7c-0.7,0-1.2,0.6-0.9,1.2
	c0.4,0.7,0.8,1.4,1.2,2.1c7.3,11.7,14.6,23.3,21.8,35c0.4,0.7,0.9,1.3,1.3,2c0.6,0.8,1.2,0.8,1.8-0.1c0.4-0.7,0.9-1.3,1.3-2
	c6.9-11.5,13.7-23.1,20.6-34.6c0.5-0.8,1-1.7,1.4-2.5c0.4-0.9,0-1.5-1.1-1.4c-0.6,0-1.3,0.1-1.9,0.2
	C1843.5,527.1,1835.4,527.5,1826.5,527.6z"/>
<path fill="#FFEEE9" d="M1795.9,525.4c-0.2-0.2-0.4-0.5-0.6-0.5c-1.2-0.3-2.5-0.6-3.7-0.8c-13.2-2.3-26-6.2-38.5-11.3
	c-1.2-0.5-2.4-0.9-3.6-1.3c-0.6-0.2-0.8,0.4-0.9,0.8c0,0.3,0.1,0.6,0.1,0.9c3.5,13.9,6.9,27.8,10.4,41.8c0.1,0.5,0.3,0.9,0.5,1.3
	c0.2,0.4,0.6,0.8,1.1,0.5c0.7-0.4,1.3-0.9,1.9-1.5c10.4-9.2,20.8-18.3,31.3-27.5c0.6-0.5,1.2-1.1,1.7-1.7
	C1795.9,526,1795.9,525.6,1795.9,525.4z"/>
<path fill="#249A4B" d="M1910.7,512.3c0.3-2.2-0.2-2.5-1.6-2c-0.7,0.3-1.5,0.6-2.2,1c-11,4.8-22.3,8.5-34,11.2
	c-2.6,0.6-5.3,1.1-7.9,1.7c-0.6,0.1-0.9,1-0.4,1.5c0.6,0.6,1.2,1.1,1.8,1.6c10.5,8.8,21,17.7,31.5,26.5c0.6,0.5,1.2,1,1.9,1.4
	c0.4,0.2,0.9,0.3,1.1-0.3c0.3-1.1,0.7-2.1,0.9-3.2c2-9,4-18,6-27.1C1908.8,520.2,1909.9,515.8,1910.7,512.3z"/>
<path fill="#249A4B" d="M1696.4,519.1c-0.1,0-0.1,0-0.2,0c0,1.8,0,3.5,0,5.3c0,0.7,0.5,1.2,1.2,1c0.9-0.3,1.8-0.7,2.7-1.1
	c12-5.2,24-10.3,36.1-15.5c0.9-0.4,1.7-0.8,2.6-1.2c0.7-0.4,0.7-0.9,0-1.4c-0.8-0.5-1.6-1-2.5-1.4c-12.3-6.6-23.7-14.5-34.1-23.7
	c-0.6-0.5-1.2-1-1.9-1.4c-0.1-0.1-0.7,0.1-0.8,0.3c-0.2,0.6-0.3,1.2-0.4,1.9C1698.3,494.3,1697.4,506.7,1696.4,519.1z"/>
<path fill="#FFEEE9" d="M1963.4,517.7c-1.1-11.7-2.3-24.1-3.4-36.5c-0.1-1.1-0.2-2.2-0.4-3.3c-0.1-0.5-0.1-1.1-0.7-1.1
	c-0.4,0-0.9,0.3-1.2,0.5c-0.3,0.2-0.5,0.4-0.7,0.6c-10.4,10-22,18.4-34.6,25.6c-0.4,0.2-0.8,0.5-1.2,0.7c-0.9,0.6-0.8,1.1,0.3,1.6
	c1,0.5,2,0.9,3.1,1.3c9.9,4,19.8,8,29.8,11.9c2.5,1,5,2,7.6,3c1.2,0.5,1.7,0,1.7-1.3C1963.6,520,1963.5,519.2,1963.4,517.7z"/>
<path fill="#2D3130" d="M2135.9,1115.2c25.8,0,51.5,0,77.3,0c6.7,0,6.7,0,6.7,6.5c0,26.9,0,53.8,0,80.6c0,1.3,0,2.6-0.1,3.8
	c-0.1,1.5-0.9,2.4-2.3,2.6c-1.1,0.1-2.2,0.1-3.4,0.1c-52.2,0-104.3,0-156.5,0c-6.4,0-5.9-1.2-5.9-5.9c0-27.4,0-54.7,0-82.1
	c0-1.1,0-2.2,0.1-3.4c0.2-1.6,0.8-2.2,2.5-2.3c1.4-0.1,2.9-0.1,4.3-0.1C2084.3,1115.2,2110.1,1115.2,2135.9,1115.2z"/>
<path fill="#524E43" d="M2135.7,1204c24.8,0,49.6,0,74.3,0c5.3,0,4.9,0,4.9-5c0-24.6,0-49.2,0-73.9c0-5.6,0.3-5.2-5.2-5.2
	c-49.4,0-98.8,0-148.2,0c-5.5,0-5.2-0.4-5.2,5.2c0,24.3,0,48.6,0,72.9c0,6.3-0.7,6,5.9,6C2086.8,1204,2111.3,1204,2135.7,1204z"/>
<path fill="#2D3130" d="M2020.7,1160.3c-0.3,10.9-1.4,20.9-4.5,30.5c-1.5,4.6-3.3,9-5.8,13.1c-1.8,3-3.9,5.8-6.6,8.2
	c-8,7.2-17.5,7.2-25.5,0.1c-3.4-3-5.9-6.7-8.1-10.7c-2.8-5.3-4.8-10.8-6.1-16.6c-4.1-18-3.8-35.8,1.3-53.6
	c1.6-5.4,3.8-10.5,6.9-15.2c2.1-3.2,4.6-6.2,7.7-8.5c7-5.2,14.8-5.2,21.8-0.1c3.5,2.6,6.2,6,8.5,9.7c4.4,7.2,6.8,15.1,8.5,23.3
	C2020.1,1147.3,2020.5,1154.2,2020.7,1160.3z"/>
<path fill="#AEDEF8" d="M2015.8,1160.5c0-7.2-0.8-14.7-2.4-21.9c-1.6-6.7-3.8-13.2-7.5-19.1c-2-3.2-4.2-6-7.3-8.2
	c-5.3-3.7-10.4-3.6-15.5,0.2c-2.5,1.8-4.5,4.1-6.2,6.6c-3.1,4.6-5.3,9.5-6.8,14.8c-5.2,17.8-5.3,35.6-0.6,53.5
	c1.6,5.9,3.8,11.5,7.3,16.6c1.9,2.8,4.1,5.3,6.9,7.2c4.9,3.2,10,3.1,14.8-0.2c2.7-1.9,4.8-4.3,6.6-6.9c2.9-4.3,4.9-9,6.5-13.8
	C2014.6,1179.9,2015.7,1170.3,2015.8,1160.5z"/>
<path fill="#2D3130" d="M2245.1,1160.9c0.3-11.4,1.5-22.3,5.3-32.9c1.8-5,4.1-9.7,7.2-14c2-2.7,4.3-5.2,7.1-7
	c6.6-4.3,13.7-4.3,20.2,0.2c2.9,2,5.3,4.6,7.4,7.5c3.6,5.1,6.1,10.8,7.9,16.8c2.8,9.2,4,18.7,4.1,28.4c0,11.3-1.3,22.3-5,33
	c-1.7,4.9-3.9,9.5-6.8,13.7c-2.3,3.3-5,6.2-8.5,8.3c-6.4,3.8-12.8,3.6-19-0.4c-3.7-2.4-6.5-5.7-8.8-9.3c-4.1-6.4-6.6-13.5-8.4-20.8
	C2245.9,1176.5,2245.3,1168.5,2245.1,1160.9z"/>
<path fill="#AEDEF8" d="M2299.6,1159.6c0.1-6-0.6-12.8-2.1-19.6c-1.5-6.9-3.7-13.6-7.2-19.7c-1.8-3.1-3.9-5.9-6.7-8.1
	c-6-4.8-11.9-4.8-17.8,0.1c-2.4,2-4.2,4.4-5.9,6.9c-2.5,3.9-4.4,8.2-5.7,12.6c-5.3,17.6-5.6,35.3-1.3,53.1
	c1.5,6.1,3.7,11.9,7.1,17.2c1.8,2.9,3.9,5.5,6.7,7.5c5.2,3.9,10.7,3.9,16,0.1c2.1-1.5,3.8-3.4,5.3-5.5c2.9-3.9,5-8.2,6.6-12.7
	C2298.2,1181.6,2299.6,1171.2,2299.6,1159.6z"/>
<path fill="#F7AB00" d="M1881.1,890.9c1,0.1,2.1,1,2.3,2.1c0.1,0.8,0.1,1.6,0.2,2.4c0.1,1.4,0.1,2.9,0.4,4.3
	c1.8,8.4,7.6,13.7,16.1,14.8c1.4,0.2,2.9,0.2,4.3,0.3c0.8,0,1.5,0.3,2.2,0.8c1.2,0.9,1.1,3-0.3,3.6c-0.7,0.3-1.5,0.5-2.3,0.6
	c-1.3,0.2-2.6,0.2-3.8,0.4c-9.6,1.2-15.9,7.8-16.6,17.5c-0.1,1.3,0,2.6-0.2,3.8c-0.2,1.4-1.5,2.3-2.7,2.2c-1.1-0.1-1.9-0.9-2.1-2.2
	c-0.1-0.6-0.1-1.3-0.2-1.9c-0.1-1.1-0.2-2.2-0.3-3.3c-1.4-9.1-7.3-14.9-16.5-16c-1.7-0.2-3.5-0.3-5.2-0.6c-1-0.2-1.6-0.9-1.8-2
	c-0.2-1.1,0.5-2.3,1.7-2.6c0.9-0.2,1.9-0.3,2.8-0.4c1.6-0.2,3.2-0.2,4.7-0.6c8.1-1.9,13-7.2,14.2-15.5c0.3-1.9,0.3-3.8,0.6-5.7
	C1878.9,891.7,1880.1,890.9,1881.1,890.9z"/>
<path fill="#F7AB00" d="M1890.7,917.6c0.2-0.4,0.1-0.6-0.3-0.8c-3.7-2.1-6.5-5.1-8.8-8.6c-0.2-0.3-0.6-0.5-0.8-0.2
	c-2.5,2.9-4.6,6.1-8,8c-0.3,0.2-0.5,0.3-0.8,0.5c-0.8,0.6-0.8,1.3,0.1,1.8c3.3,2,6,4.7,8,8c0.5,0.8,1.3,0.7,1.8-0.1
	c2.1-3.3,4.7-6,8.1-8C1890.3,918.1,1890.5,917.8,1890.7,917.6z"/>
<path fill="#E8384A" d="M2268.2,1043.8c-0.2,1-0.6,1.8-1.6,2.2c-0.4,0.1-0.9,0.1-1.4,0.2c-1.3,0.2-2.5,0.3-3.8,0.5
	c-7.3,1.4-11.2,5.4-12.2,12.8c-0.2,1.4-0.2,2.9-0.5,4.3c-0.2,1-1,1.6-2.1,1.6c-1.3,0.1-2.3-0.6-2.5-1.8c-0.2-1.1-0.2-2.2-0.3-3.3
	c-0.4-6.3-4.2-12.3-12-13.5c-1.7-0.3-3.5-0.4-5.2-0.7c-1.2-0.2-2-1.3-1.9-2.4c0-1.1,0.9-2.1,2.1-2.3c1.6-0.2,3.2-0.2,4.8-0.5
	c7.6-1.5,11.7-6.2,12.4-13.8c0.1-1.1,0.1-2.2,0.3-3.3c0.2-1.1,1.4-1.8,2.6-1.7c1.1,0.1,1.8,0.8,2,1.8c0.2,1.1,0.2,2.2,0.4,3.3
	c1,8.4,5.4,12.8,13.9,13.9c1.1,0.1,2.2,0.1,3.3,0.3C2267.3,1041.6,2268.2,1042.8,2268.2,1043.8z"/>
<path fill="#E8384A" d="M2246.4,1050.3c0.1-0.1,0.3-0.1,0.4-0.2c1.8-2.2,3.8-4.2,6-6c0.5-0.4,0.1-0.9-0.2-1.1
	c-2-1.5-3.9-3.2-5.4-5.3c-0.5-0.8-1.3-0.8-1.8,0.2c-1.5,2.4-4.1,3.7-5.7,6c2.1,1.9,4.4,3.6,6,6
	C2245.8,1050.1,2246.2,1050.2,2246.4,1050.3z"/>
<path fill="#249A4B" d="M2140,973.7c-0.1,0.3-0.2,0.6-0.4,0.9c-0.2,0.3-0.4,0.5-0.7,0.7c-7.7,5.7-15.3,11.4-23,17.1
	c-1.3,1-1.7,0.9-2.7-0.4c-3.6-4.8-7.2-9.7-10.8-14.6c-1-1.4-0.9-1.8,0.3-2.8c7.7-5.7,15.3-11.4,23-17.1c0.9-0.7,1.8-0.9,2.5,0.1
	c3.8,5.1,7.6,10.2,11.4,15.3C2139.8,973.1,2139.9,973.4,2140,973.7z"/>
<path fill="#249A4B" d="M2126.1,963.8c-0.4,0.2-0.9,0.4-1.2,0.7c-3.1,2.3-6.2,4.5-9.2,6.8c-2.3,1.7-4.5,3.5-6.7,5.3
	c0.8,3.2,3.4,5.3,5.2,7.9c1.1,1.7,1.6,1.7,3.5,0.3c3-2.1,5.9-4.3,8.8-6.5c2.2-1.8,4.9-3,6.6-5.4c-1.2-2.6-3.2-4.7-4.8-7
	c-0.4-0.5-0.8-1-1.2-1.5C2126.7,964.1,2126.4,964,2126.1,963.8z"/>
<path fill="#F7AB00" d="M2100.2,1039.3c-2.9,0.1-5.2-2.1-5.3-4.9c-0.1-2.9,2.1-5.3,4.9-5.4c2.7-0.1,5.2,2.2,5.4,5
	C2105.3,1036.8,2103,1039.2,2100.2,1039.3z"/>
<path fill="#2D3130" d="M840.2,1282.7c0.2,18.6-14.5,37.4-37.5,37.5c-20.8,0.1-37.9-16.2-37.7-37.8c0.1-22.9,18.9-37.8,38-37.6
	C823.6,1245.1,840.3,1261.9,840.2,1282.7z"/>
<path fill="#3F3B2F" d="M769.8,1282.7c0.1,18,14.7,32.6,32.7,32.6c18.1,0,33.1-14.9,32.9-33c-0.2-17.9-14.4-32.9-33.2-32.6
	C783.2,1250,769.6,1265.7,769.8,1282.7z"/>
<path fill="#2D3130" d="M1693.4,1244.9c20.7,0,37.5,16.8,37.6,37.5c0.1,19.2-14.9,37.8-37.8,37.8c-21.6,0-37.5-17.2-37.6-37.5
	C1655.5,1261.8,1672.5,1244.9,1693.4,1244.9z"/>
<path fill="#3F3B2F" d="M1660.6,1282.5c-0.5,16.5,13.1,32.7,32.4,32.9c18.2,0.2,33.1-14.3,33.1-32.7c0-18.3-14.5-33-33-32.9
	C1673,1249.9,1660.3,1266.6,1660.6,1282.5z"/>
</svg>
