<?xml version="1.0" encoding="utf-8"?>
<!-- Generator: Adobe Illustrator 22.1.0, SVG Export Plug-In . SVG Version: 6.00 Build 0)  -->
<!DOCTYPE svg PUBLIC "-//W3C//DTD SVG 1.1//EN" "http://www.w3.org/Graphics/SVG/1.1/DTD/svg11.dtd">
<svg version="1.1" id="Calque_1" xmlns="http://www.w3.org/2000/svg" xmlns:xlink="http://www.w3.org/1999/xlink" x="0px" y="0px"
	 viewBox="0 0 771.2 211.9" style="enable-background:new 0 0 771.2 211.9;" xml:space="preserve">
<style type="text/css">
	.st0{fill:#DBA775;}
	.st1{fill:#663B2A;}
	.st2{fill:#DB3333;}
	.st3{fill:#91306A;}
	.st4{fill:#AA2E2E;}
	.st5{fill:#6AC93D;}
	.st6{fill:#EFCF48;}
	.st7{fill:#404040;}
	.st8{fill:#FFFFFF;}
</style>
<g>
	<g>
		<path class="st0" d="M25,178.2h69.1c10.9,0,19.8-8.9,19.8-19.8H5.2C5.2,169.2,14.1,178.2,25,178.2z"/>
	</g>
	<path class="st1" d="M114.2,136.5H4.9c-2.7,0-4.9,2.2-4.9,4.9v5.2c0,2.7,2.2,4.9,4.9,4.9h109.3c2.7,0,4.9-2.2,4.9-4.9v-5.2
		C119.1,138.7,116.9,136.5,114.2,136.5z"/>
	<path class="st2" d="M112.4,111.5l-95.8-25c-2.6-0.7-5.3,0.9-6,3.5l-1.3,5.1c-0.7,2.6,0.9,5.3,3.5,6l95.8,25c2.6,0.7,5.3-0.9,6-3.5
		l1.3-5.1C116.6,114.9,115,112.2,112.4,111.5z"/>
	<path class="st3" d="M67.2,79.2L24.6,59.4c-1.6-0.8-3.6,0-4.4,1.6l-1.5,3.2c-0.8,1.6,0,3.6,1.6,4.4l42.6,19.8
		c1.6,0.8,3.6,0,4.4-1.6l1.5-3.2C69.5,81.9,68.8,79.9,67.2,79.2z"/>
	<path class="st3" d="M117.4,102.5l-43.1-20c-1.6-0.8-3.6,0-4.4,1.6l-1.5,3.2c-0.8,1.6,0,3.6,1.6,4.4l43.1,20c1.6,0.8,3.6,0,4.4-1.6
		l1.5-3.2C119.7,105.2,119,103.2,117.4,102.5z"/>
	<path class="st4" d="M14.8,97.6c23.7,6.2,47.5,12.4,71.2,18.6c3.3,0.9,6.7,1.7,10,2.6c1.1,0.3,1.6-1.4,0.5-1.7
		c-23.7-6.2-47.5-12.4-71.2-18.6c-3.3-0.9-6.7-1.7-10-2.6C14.2,95.6,13.7,97.3,14.8,97.6L14.8,97.6z"/>
	<path class="st4" d="M101.4,120.5c2.1,0.6,4.3,1.1,6.4,1.7c1.1,0.3,1.6-1.4,0.5-1.7c-2.1-0.6-4.3-1.1-6.4-1.7
		C100.8,118.5,100.3,120.2,101.4,120.5L101.4,120.5z"/>
	<g>
		<path class="st5" d="M120.6,98.5c-1.3,0.3-2.7,0-3.8-0.9l0,0c-1.1-0.9-1.7-2.2-1.7-3.7c0.1-2.2-0.9-4.2-2.6-5.6c0,0,0,0-0.1,0
			c-1.7-1.3-3.8-1.8-5.9-1.3c-1.3,0.3-2.7,0-3.8-0.9c-1.1-0.9-1.7-2.2-1.7-3.7c0.1-2.2-0.9-4.2-2.6-5.6c0,0,0,0-0.1,0
			c-1.7-1.3-3.8-1.8-5.9-1.3c-1.3,0.3-2.7,0-3.8-0.9c-1.1-0.9-1.7-2.2-1.7-3.7c0.1-2.1-0.8-4.1-2.4-5.4c-1.5-1.2-3.4-1.7-5.3-1.4
			c0,0-2.6,0.2-4.8-1.4l0,0c-0.6-0.5-1.7-1.6-1.6-3.2c0.1-2.2-0.9-4.2-2.6-5.6c0,0,0,0-0.1,0c-1.7-1.3-3.8-1.8-5.9-1.3
			c-1.3,0.3-2.7,0-3.8-0.9c-1.1-0.9-1.7-2.2-1.7-3.7c0.1-2.2-0.9-4.2-2.6-5.6c0,0,0,0-0.1,0c-1.7-1.3-3.8-1.8-5.9-1.3
			c-1.3,0.3-2.7,0-3.8-0.9c-1.1-0.9-1.7-2.2-1.7-3.7c0.1-2.2-0.9-4.2-2.6-5.6c0,0,0,0-0.1,0c-1.7-1.3-3.8-1.8-5.9-1.3l0.6,2.3
			c1.3-0.3,2.7,0,3.8,0.9l0,0c1.1,0.9,1.7,2.2,1.7,3.7c-0.1,2.2,0.9,4.2,2.6,5.6c0,0,0,0,0.1,0c1.7,1.3,3.8,1.8,5.9,1.3
			c1.3-0.3,2.7,0,3.8,0.9c1.1,0.9,1.7,2.2,1.7,3.7c-0.1,2.2,0.9,4.2,2.6,5.6c0,0,0,0,0.1,0c1.7,1.3,3.8,1.8,5.9,1.3
			c1.3-0.3,2.7,0,3.8,0.9l0,0c1.1,0.9,1.7,2.2,1.7,3.7c-0.1,1.9,0.8,3.8,2.5,5.1c0,0,0,0,0.1,0c1.8,1.4,4.1,2,6.2,1.7
			c0,0,2.4-0.4,3.9,1c1,0.9,1.6,2.1,1.5,3.4c-0.1,2.2,0.9,4.2,2.6,5.6c0,0,0,0,0.1,0c1.7,1.3,3.8,1.8,5.9,1.3c1.3-0.3,2.7,0,3.8,0.9
			l0,0c1.1,0.9,1.7,2.2,1.7,3.7c-0.1,2.2,0.9,4.2,2.6,5.6c0,0,0,0,0.1,0c1.7,1.3,3.8,1.8,5.9,1.3c1.3-0.3,2.7,0,3.8,0.9l0,0
			c1.1,0.9,1.7,2.2,1.7,3.7c-0.1,2.2,0.9,4.2,2.6,5.6c0,0,0,0,0.1,0c1.7,1.3,3.8,1.8,5.9,1.3L120.6,98.5z"/>
		<path class="st5" d="M119.5,102.5c-1.9,0-3.7-0.6-5.2-1.8l-0.1-0.1c-2.1-1.7-3.2-4.2-3.1-6.8c0-1-0.4-1.8-1.1-2.5
			c-0.7-0.6-1.7-0.8-2.5-0.6c-2.5,0.6-5.1,0-7.1-1.6l-0.1-0.1c-2.1-1.7-3.2-4.2-3.1-6.8c0-1-0.4-1.8-1.1-2.5
			c-0.7-0.6-1.7-0.8-2.5-0.6c-2.5,0.6-5.1,0-7.1-1.6l-0.1-0.1c-2.1-1.7-3.2-4.2-3.1-6.8c0-0.9-0.3-1.6-1-2.3
			c-0.9-0.9-2.6-0.7-2.7-0.7c-2.6,0.4-5.3-0.4-7.4-2l-0.1-0.1c-2-1.6-3.1-3.9-3-6.3c0-1-0.4-1.8-1.1-2.5c-0.7-0.6-1.7-0.8-2.5-0.6
			c-2.5,0.6-5.1,0-7.1-1.6l-0.1-0.1c-2.1-1.7-3.2-4.2-3.1-6.8c0-1-0.4-1.8-1.1-2.5c-0.7-0.6-1.6-0.8-2.5-0.6c-2.5,0.6-5.1,0-7.1-1.6
			l-0.1-0.1c-2.1-1.7-3.2-4.2-3.1-6.8c0-1-0.4-1.8-1.1-2.5c-0.7-0.6-1.7-0.8-2.5-0.6l-1.5,0.3l-1.3-5.3l1.5-0.3
			c2.5-0.6,5.1,0,7.1,1.6l0.1,0.1c2,1.7,3.2,4.1,3.1,6.8c0,1,0.4,1.8,1.1,2.5c0.7,0.6,1.6,0.8,2.5,0.6c2.5-0.6,5.1,0,7.1,1.6
			l0.1,0.1c2.1,1.7,3.2,4.2,3.1,6.8c0,1,0.4,1.8,1.1,2.5c0.8,0.6,1.7,0.8,2.5,0.6c2.5-0.6,5.1,0,7.1,1.6l0.1,0.1
			c2.1,1.7,3.2,4.2,3.1,6.8c0,0.9,0.6,1.6,1.1,2c1.6,1.1,3.5,1.1,3.7,1.1c2.3-0.3,4.6,0.3,6.4,1.7c2,1.6,3,4,3,6.6
			c0,1,0.4,1.8,1.1,2.5c0.7,0.6,1.6,0.8,2.5,0.6c2.5-0.6,5.1,0,7.1,1.6h0.1c2.1,1.7,3.2,4.2,3.1,6.8c0,1,0.4,1.8,1.1,2.5
			c0.7,0.6,1.7,0.8,2.5,0.6c2.5-0.6,5.1,0,7.1,1.6l0.1,0.1c2.1,1.7,3.2,4.2,3.1,6.8c0,1,0.4,1.8,1.1,2.5c0.7,0.6,1.7,0.8,2.5,0.6
			l1.5-0.3l1.3,5.3l-1.5,0.3C120.8,102.4,120.2,102.5,119.5,102.5z M73.6,63.8l-0.5,0.7L73.6,63.8L73.6,63.8z"/>
	</g>
	<g>
		<path class="st5" d="M113,154.7c-0.8,1.1-2.1,1.7-3.5,1.7l0,0c-1.4,0-2.7-0.7-3.6-1.8c-1.3-1.7-3.3-2.8-5.5-2.8c0,0,0,0-0.1,0
			c-2.1,0-4.1,1-5.4,2.6c-0.8,1.1-2.2,1.7-3.6,1.7s-2.7-0.7-3.6-1.8c-1.3-1.7-3.3-2.8-5.5-2.8c0,0,0,0-0.1,0c-2.1,0-4.1,1-5.4,2.6
			c-0.8,1.1-2.1,1.7-3.6,1.7c-1.4,0-2.7-0.7-3.6-1.8c-1.3-1.7-3.2-2.7-5.2-2.7c-1.9,0-3.7,0.8-5.1,2.2c0,0-1.9,1.8-4.6,1.9
			c0,0,0,0-0.1,0c-0.8,0-2.3-0.2-3.2-1.5c-1.3-1.7-3.3-2.8-5.5-2.8c0,0,0,0-0.1,0c-2.1,0-4.1,1-5.4,2.6c-0.8,1.1-2.1,1.7-3.6,1.7
			c-1.4,0-2.7-0.7-3.6-1.8c-1.3-1.7-3.3-2.8-5.5-2.8c0,0,0,0-0.1,0c-2.1,0-4.1,1-5.4,2.6c-0.8,1.1-2.1,1.7-3.6,1.7
			c-1.4,0-2.7-0.7-3.6-1.8c-1.3-1.7-3.3-2.8-5.5-2.8c0,0,0,0-0.1,0c-2.1,0-4.1,1-5.4,2.6l1.9,1.5c0.8-1.1,2.1-1.7,3.5-1.7l0,0
			c1.4,0,2.7,0.7,3.6,1.8c1.3,1.7,3.3,2.8,5.5,2.8c0,0,0,0,0.1,0c2.1,0,4.1-1,5.4-2.6c0.8-1.1,2.1-1.7,3.6-1.7
			c1.4,0,2.7,0.7,3.6,1.8c1.3,1.7,3.3,2.8,5.5,2.8c0,0,0,0,0.1,0c2.1,0,4.1-1,5.4-2.6c0.8-1.1,2.1-1.7,3.5-1.7l0,0
			c1.4,0,2.7,0.7,3.6,1.8c1.2,1.6,3,2.4,5.1,2.5h0.1c2.2,0,4.4-1,5.9-2.5c0,0,1.6-1.8,3.7-1.6c1.3,0.1,2.5,0.6,3.3,1.7
			c1.3,1.7,3.3,2.8,5.5,2.8c0,0,0,0,0.1,0c2.1,0,4.1-1,5.4-2.6c0.8-1.1,2.1-1.7,3.5-1.7l0,0c1.4,0,2.7,0.7,3.6,1.8
			c1.3,1.7,3.3,2.8,5.5,2.8c0,0,0,0,0.1,0c2.1,0,4.1-1,5.4-2.6c0.8-1.1,2.1-1.7,3.5-1.7l0,0c1.4,0,2.7,0.7,3.6,1.8
			c1.3,1.7,3.3,2.8,5.5,2.8c0,0,0,0,0.1,0c2.1,0,4.1-1,5.4-2.6L113,154.7z"/>
		<path class="st5" d="M109.5,160.3h-0.1c-2.6,0-5.1-1.3-6.7-3.4c-0.6-0.8-1.4-1.2-2.4-1.2s-1.8,0.4-2.4,1.1c-1.6,2-4,3.2-6.6,3.2
			h-0.1c-2.7,0-5.1-1.3-6.7-3.4c-0.6-0.8-1.4-1.2-2.4-1.2s-1.8,0.4-2.4,1.1c-1.6,2-4,3.2-6.6,3.2H73c-2.7,0-5.1-1.3-6.7-3.4
			c-0.5-0.7-1.2-1.1-2.2-1.1c-1.3-0.1-2.5,1.1-2.5,1.1c-1.8,1.9-4.4,3-7,3h-0.1c-2.6,0-4.9-1.1-6.3-3.1c-0.6-0.8-1.4-1.2-2.4-1.2
			s-1.8,0.4-2.4,1.1c-1.6,2-4,3.2-6.6,3.2h-0.1c-2.7,0-5.1-1.3-6.7-3.4c-0.6-0.8-1.4-1.2-2.4-1.2s-1.8,0.4-2.4,1.1
			c-1.6,2-4,3.2-6.6,3.2h-0.1c-2.7,0-5.1-1.3-6.7-3.4c-0.6-0.8-1.4-1.2-2.4-1.2l0,0c-1,0-1.8,0.4-2.4,1.1l-0.9,1.2l-4.3-3.3l0.9-1.2
			c1.6-2,4-3.2,6.6-3.2h0.1c2.6,0,5.1,1.3,6.7,3.4c0.6,0.8,1.4,1.2,2.4,1.2c0.9,0,1.8-0.4,2.4-1.1c1.6-2,4-3.2,6.6-3.2h0.1
			c2.7,0,5.1,1.3,6.7,3.4c0.6,0.8,1.4,1.2,2.4,1.2s1.8-0.4,2.4-1.1c1.6-2,4-3.2,6.6-3.2h0.1c2.7,0,5.1,1.3,6.7,3.4
			c0.6,0.8,1.5,0.9,2.1,0.9c1.9-0.1,3.4-1.3,3.6-1.5c1.6-1.7,3.8-2.7,6.1-2.7c2.5,0,4.9,1.2,6.4,3.3c0.6,0.8,1.4,1.2,2.4,1.2l0,0
			c0.9,0,1.8-0.4,2.3-1.1c1.6-2,4-3.2,6.6-3.2h0.1c2.7,0,5.1,1.3,6.7,3.4c0.6,0.8,1.4,1.2,2.4,1.2c0.9,0,1.8-0.4,2.4-1.1
			c1.6-2,4-3.2,6.6-3.2h0.1c2.7,0,5.1,1.3,6.7,3.4c0.6,0.8,1.4,1.2,2.4,1.2l0,0c1,0,1.8-0.4,2.3-1.1l0.9-1.2l4.3,3.3L116,157
			C114.5,159.1,112.1,160.3,109.5,160.3z"/>
	</g>
	<path class="st6" d="M111.8,126.9L8.6,120c-1.5-0.1-2.8,1.6-3,3.8C5.5,126,6.5,127.9,8,128l84.1,5.6l8,14.3c0,0,7.4-10.1,9.5-13.1
		l1.6,0.1c1.5,0.1,2.8-1.6,3-3.8C114.4,128.8,113.3,127,111.8,126.9z"/>
	<path class="st0" d="M129.7,93.3c5.7-15,3.4-36.3-7.6-56.2C111.2,17.2,93.5,3.7,79.4,0.5C77.8,0,77.5,0,76.8,0.1
		c-0.1,0-0.9,0.2-1.2,0.4l-2.1,1.2c-1.6,0.9-2.2,2.9-1.3,4.5l49.1,89.6c0.9,1.6,2.9,2.2,4.5,1.3l2.1-1.2
		C128.8,95.6,129,94.7,129.7,93.3z"/>
</g>
<g>
	<g id="_x30_eUKEy.tif_1_">
		<g>
			<path d="M530.8,136.7c-12.5,0-23.8,0-35.3,0c-0.2,5.1,1.5,9.1,5.7,11.2c7.1,3.6,13.6,1.8,19.8-3.4c2.6,2.7,5,5.3,7.5,8
				c-7,8.1-19.8,10.9-31.3,6.9c-9.1-3.2-14.6-11.1-14.8-22.5c-0.1-5.5,0.1-11.2,1.5-16.4c2.9-11.1,12.1-17.2,23.4-16.7
				c11.7,0.5,20.2,7.4,22.5,18.6C530.6,126.8,530.4,131.4,530.8,136.7z M517.1,127.3c0.2-4.6-1.1-8.3-4.8-10.6
				c-3.8-2.4-8-2.4-11.8,0c-3.7,2.3-5.1,6-4.7,10.6C502.7,127.3,509.6,127.3,517.1,127.3z"/>
			<path d="M689.1,142.7c-2.1,11.9-10.8,18.6-23.9,18.3c-12-0.3-21-7.9-22-19.6c-0.6-6.9-0.4-14.1,0.7-21
				c1.7-10.2,11.1-16.7,22.4-16.7c11.5,0.1,20.5,6.8,22.5,17.2C689.6,124.7,689.6,139.4,689.1,142.7z M657.4,142.6
				c1.1,4.2,4.5,6.3,8.9,6.3c4.3,0,8.3-2.2,8.7-6.3c0.7-6.6,0.8-13.4,0.1-20c-0.4-4.3-4.2-6.4-8.5-6.5c-4.7-0.1-8,1.8-9.2,6.2
				C656.5,125.5,656.5,139.3,657.4,142.6z"/>
			<path d="M428.5,144.2c-2.6,11.3-11.4,17.2-24.3,16.7c-11-0.4-19.6-7.4-20.9-18.3c-0.8-6.8-0.8-13.8,0-20.5
				c1.4-11.3,11.2-18.7,23.1-18.3c12.6,0.4,21.5,8.1,22.8,19.9C429.5,126.6,429.3,140.4,428.5,144.2z M414.9,122.1
				c-1.5-4.1-4.5-6-9-6.1c-4.3,0-8.1,1.9-8.5,6c-0.8,6.8-0.8,13.9,0,20.7c0.4,4.1,4.2,6,8.4,6.2c4.4,0.1,7.8-1.9,9-6
				C415.7,139.7,415.2,123,414.9,122.1z"/>
			<path class="st7" d="M269.2,135.3c-12.1,0-24.1,0-36.4,0c0,7.1,1.3,13.2,7.2,16.7c8.3,4.9,16.1,2.4,23.4-3.4
				c1.6,1.4,3.1,2.7,4.5,3.9c-5.9,7.5-16.7,10.3-27.1,7.4c-8.3-2.4-14.2-9.7-15-19.7c-0.4-5.5-0.4-11.2,0.6-16.5
				c2.4-12.6,11-18.8,23.5-17.9c10.5,0.8,18.3,9.3,19.2,21.1C269.4,129.6,269.2,132.2,269.2,135.3z M262.1,129.6
				c-0.5-6.4-1.3-12.3-7.2-15.7c-5-2.9-10.4-2.8-15.4,0.3c-5.4,3.5-6.4,9.2-6.6,15.3C242.8,129.6,252.3,129.6,262.1,129.6z"/>
			<path class="st7" d="M152.1,153.4c1.6-1.6,3-3,4.6-4.5c7,6,15.2,6.9,23.9,4.9c5.3-1.2,8-4.8,7.7-9.4c-0.2-4.3-2.9-6.8-8.5-7.7
				c-3.9-0.6-7.8-0.7-11.7-1.1c-8.1-0.9-13.3-5.2-13.9-11.7c-0.8-8.3,2.8-14,10.9-16.7c8.7-3,21.4-1,27.7,4.7
				c-1.6,1.2-3.2,2.4-4,3.1c-4.6-1.9-7.1-3.5-16.7-2.7c-2.1,0.2-4.5,0.7-6.6,1.6c-3.3,1.5-4.4,4.5-4.2,8.1c0.2,3.4,2.1,5.8,5.2,6.5
				c3.8,0.9,7.7,1.2,11.6,1.8c2.1,0.3,4.3,0.4,6.4,0.9c5.6,1.3,9.7,4.3,10.8,10.2c1.1,6.1-0.3,11.5-5.7,15.4
				C179.9,163.7,160.8,162.1,152.1,153.4z"/>
		</g>
	</g>
	<path class="st7" d="M211,101.5c0-0.5,0-1,0-1.4l0,0V101.5z"/>
	<path class="st7" d="M211.1,146.5c-0.3-9-0.2-27-0.2-27v-3.2h8.9l7.3-8.1h-16.2V90.3h-1.7h-4h-1.6l0.1,36.5c0,6.3,0,12.7,0,19
		c0,9.8,5.1,14.9,14.9,14.5c2.1-0.1,5.3-0.2,5.3-0.2v-6.5h-4.8C212.6,153.6,211.3,151.8,211.1,146.5z"/>
	<path d="M430.1,104.1"/>
	<path class="st7" d="M319.5,121c-0.1-4.5-2.1-8.3-5.8-11.1c-7.3-5.4-23.2-5.4-30.4,0c-1.4,1-2.5,2.4-4,3.7c1.7,1.6,3.2,2.9,4.8,4.4
		c1.3-1.1,2.2-2,3.2-2.6c6.2-4,12.7-4.4,19.3-1.4c5.2,2.4,5.7,7.4,5.8,12.4c0.1,3-1.2,3.7-3.9,3.7c-5.3-0.1-10.6-0.1-15.8,0.1
		c-9.6,0.5-15.6,6.4-15.7,15.1c-0.1,9,6,14.9,15.7,15.6c6.6,0.4,13.4-0.8,18.8-5.3v4.5h0.8h0.5c2.2,0,4.1,0,6,0c0.1,0,0.1,0,0.2,0
		h0.6C319.7,160.1,319.6,127.8,319.5,121z M306.3,153c-6.4,2.4-12.9,3.1-19-0.9c-3.5-2.4-3.4-6.3-2.6-9.9c0.9-3.9,3.9-5.8,7.6-6.3
		c3.2-0.5,6.4-0.4,9.7-0.5c0,0,3.2,0.1,4.9,0.1c2.6,0,4,0,4.8,0.6v11.2C310.9,149.8,309.4,151.9,306.3,153z"/>
	<path class="st7" d="M377.4,160.9l-11-16.5c-3.1-4.8-6.1-9.5-9.3-14.2c-1.4-2.1-1.5-3.5-0.3-5.2l2.9-3.3c2.5-2.7,4.9-5.4,7.3-8.2
		l6.2-7h-9.7l-24,27.2c-0.1,0-0.2-0.1-0.3-0.1V82.2h-7.3v0.3h-0.1c0,1.8,0,3.4,0,5c0,22.5,0.1,73.5,0.1,73.5h7.3v-13.5
		c0.2-1,0.4-2,0.8-2.9c0.2-0.5,0.5-1.1,0.8-1.6l9.1-10.2l17.7,28.2L377.4,160.9L377.4,160.9z"/>
	<path d="M467.5,104.1L456.1,139l-11.4-34.9h-14.6l0.1,0.2c0,0,0,0-0.1,0c0.6,1.8,18.8,51.4,19.1,52.1v0.1l0,0c0.4,0.9,2,4.4,2,4.4
		h9.7c0,0,1.6-3.7,1.8-4.2c0.5-1.4,1-2.8,1.5-4.2C469.4,138.7,482,104,482,104h-14.5L467.5,104.1L467.5,104.1z"/>
	<path d="M552.7,108.4v-4.3h-13.8c0,0-0.3,0.4-0.4,0.4c0,18.7,0,37,0,55.5c4.5,0,8.7,0,13.3,0c0-1.8,0-3.3,0-4.8
		c0-9.6-0.1-19.2,0-28.8c0.1-7.1,5-11.5,11.5-10.2c1.9,0.4,3.6,1.6,4.6,2c3.6-3.4,6.9-6.6,10.3-9.8
		C572,102.6,561.4,101.8,552.7,108.4z"/>
	<g>
		<path d="M604.7,105.7h-5.4h-1.9v-4.1V100v-0.8c0.8-4.9,1.9-5.7,10.1-6.1c0-3.5,0-7.1,0-10.8c-2.8,0-5.2-0.1-7.6,0
			c-9.3,0.2-14.8,5.7-15.8,15c-0.4,3.5-0.4,10-0.4,10v53.6h13.8v-3.5c0.1-0.5,0.1-1.1,0.1-1.8c-0.1-2.6-0.1-5.1-0.1-7.7v-29.4
			c0.1-1.1,0.5-1.9,1.2-2.4h9.4v-10.6h-3.4L604.7,105.7L604.7,105.7z"/>
		<path class="st8" d="M597.4,100.1c0-0.3,0-0.6,0-0.8l0,0V100.1z"/>
	</g>
	<path d="M640.4,148.8h-7.6c-3.8,0-3.4-1.8-3.8-3.2V82.2h-13.8v31.4c0,0.9,0,1.8,0,2.7v30.9c0.4,7.4,6.2,12.4,14,13.1
		c3.2,0.3,11.1-0.1,11.1-0.1L640.4,148.8L640.4,148.8z"/>
	<path d="M771.1,104.1c-0.6,0-14.6,0-14.6,0l-6.7,28c-0.5,1.9-1.1,3.7-1.6,5.6l-12-33.6h-10.6L714.3,138h-0.1l-9.7-33.9h-14.6
		l13.9,43.7c0.8,2.7,1.6,5.3,2.4,8c0.3,0.9,1.5,4.3,1.5,4.3h12.2l4.9-17.7c1.9-5.7,4-11.5,6-17.7c0.9,2.3,11.8,35.4,11.8,35.4h12.2
		c0,0,2.4-8.8,5.4-19.5c3.2-10.7,6.5-21.4,9.8-32.1c0.4-1.2,0.6-2.5,0.9-4.2l0,0C771,104.2,771.1,104.1,771.1,104.1z"/>
</g>
<g>
	<path d="M697.1,182.4h2.7v8.2c0.6-0.8,1.3-1.4,2.2-1.8c0.8-0.4,1.8-0.6,2.8-0.6c2.1,0,3.7,0.7,5,2.1c1.3,1.4,1.9,3.5,1.9,6.2
		c0,2.6-0.6,4.8-1.9,6.5s-3,2.6-5.3,2.6c-1.3,0-2.3-0.3-3.2-0.9c-0.5-0.4-1.1-0.9-1.7-1.7v2.1h-2.5V182.4z M707.7,201.4
		c0.7-1.2,1.1-2.8,1.1-4.7c0-1.7-0.4-3.2-1.1-4.3c-0.7-1.1-1.8-1.7-3.3-1.7c-1.3,0-2.4,0.5-3.3,1.4s-1.4,2.5-1.4,4.6
		c0,1.5,0.2,2.8,0.6,3.8c0.7,1.8,2.1,2.7,4.1,2.7C705.8,203.2,706.9,202.6,707.7,201.4z"/>
	<path d="M725.2,188.7h3.1c-0.4,1.1-1.3,3.5-2.6,7.2c-1,2.8-1.8,5.1-2.5,6.9c-1.6,4.2-2.7,6.8-3.4,7.7s-1.8,1.4-3.4,1.4
		c-0.4,0-0.7,0-0.9,0s-0.5-0.1-0.8-0.2v-2.5c0.5,0.1,0.8,0.2,1,0.2s0.4,0,0.6,0c0.5,0,0.9-0.1,1.1-0.3c0.2-0.2,0.4-0.4,0.6-0.6
		c0.1-0.1,0.2-0.5,0.6-1.3c0.3-0.8,0.5-1.3,0.7-1.7l-6.1-17h3.1l4.4,13.4L725.2,188.7z"/>
	<path d="M747.8,205.1v-5.4h-9.7V197l10.1-14h2.3v14.3h3.2v2.4h-3.2v5.4H747.8z M747.8,197.3v-10l-7.1,10H747.8z"/>
	<path d="M757,200.2c0.7-1.4,2-2.7,4-3.8l3-1.7c1.3-0.8,2.3-1.4,2.8-2c0.8-0.9,1.3-1.8,1.3-2.9c0-1.3-0.4-2.3-1.2-3.1
		s-1.8-1.1-3.1-1.1c-1.9,0-3.2,0.7-3.9,2.2c-0.4,0.8-0.6,1.8-0.6,3.2h-2.8c0-1.9,0.4-3.5,1.1-4.7c1.2-2.1,3.3-3.2,6.4-3.2
		c2.5,0,4.4,0.7,5.5,2c1.2,1.4,1.7,2.9,1.7,4.6c0,1.8-0.6,3.3-1.9,4.5c-0.7,0.7-2,1.6-3.9,2.6l-2.1,1.2c-1,0.6-1.8,1.1-2.4,1.6
		c-1,0.9-1.7,1.9-1.9,3h12v2.6h-15.1C756,203.2,756.4,201.6,757,200.2z"/>
</g>
</svg>
